<svg version="1.1" xmlns="http://www.w3.org/2000/svg" viewBox="0 0 2105.4617661372463 2054.9837865309237" width="2105.4617661372463" height="2054.9837865309237" filter="invert(93%) hue-rotate(180deg)">
  <!-- svg-source:excalidraw -->
  
  <defs>
    <style class="style-fonts">
      @font-face {
        font-family: "Virgil";
        src: url("https://excalidraw.com/Virgil.woff2");
      }
      @font-face {
        font-family: "Cascadia";
        src: url("https://excalidraw.com/Cascadia.woff2");
      }
    </style>
    
  </defs>
  <rect x="0" y="0" width="2105.4617661372463" height="2054.9837865309237" fill="#ffffff"></rect><g stroke-linecap="round" transform="translate(10 10) rotate(0 1042.7308830686231 1017.4918932654618)"><path d="M32 0 M32 0 C711.79 4.31, 1391.44 4.67, 2053.46 0 M32 0 C624.94 6.25, 1218.54 6.64, 2053.46 0 M2053.46 0 C2076.04 0.4, 2087.34 9.47, 2085.46 32 M2053.46 0 C2076.36 0.35, 2087.64 11.23, 2085.46 32 M2085.46 32 C2086.66 677.89, 2086.49 1323.17, 2085.46 2002.98 M2085.46 32 C2081.81 805.55, 2081.78 1579.51, 2085.46 2002.98 M2085.46 2002.98 C2083.67 2024.17, 2073.21 2036.72, 2053.46 2034.98 M2085.46 2002.98 C2086.23 2023.44, 2076.2 2035.76, 2053.46 2034.98 M2053.46 2034.98 C1638.46 2043.22, 1223.88 2042.5, 32 2034.98 M2053.46 2034.98 C1556.26 2026.91, 1059.42 2027.04, 32 2034.98 M32 2034.98 C10.3 2033.15, -0.8 2025.01, 0 2002.98 M32 2034.98 C12.89 2036.16, 0.51 2023.07, 0 2002.98 M0 2002.98 C-6.64 1603.59, -6.52 1203.37, 0 32 M0 2002.98 C5.23 1601.92, 4.61 1200.1, 0 32 M0 32 C-1.31 9.94, 10.44 -0.24, 32 0 M0 32 C-1.68 12.34, 10.93 0.29, 32 0" stroke="#000000" stroke-width="1" fill="none"></path></g><g stroke-linecap="round" transform="translate(932.1717464106155 846.9425267652987) rotate(0 196.82060906936476 108.87003404471011)"><path d="M10.53 17.1 C10.53 17.1, 10.53 17.1, 10.53 17.1 M10.53 17.1 C10.53 17.1, 10.53 17.1, 10.53 17.1 M6.98 27.27 C9.49 26.08, 11.41 22.96, 19.45 12.93 M6.98 27.27 C9.15 23.3, 12.96 20.45, 19.45 12.93 M4.75 35.93 C14.57 24.96, 21.46 17.61, 32.31 4.24 M4.75 35.93 C13.91 25.47, 22.2 16.05, 32.31 4.24 M3.18 43.84 C14.07 29.56, 27.46 14.77, 37.95 3.84 M3.18 43.84 C14.11 31.12, 25.35 17.98, 37.95 3.84 M3.58 49.48 C17.75 35.27, 30.91 20.27, 44.25 2.69 M3.58 49.48 C12.9 38.92, 20.73 29.69, 44.25 2.69 M3.31 55.88 C12.46 41.87, 26.41 32.89, 49.89 2.3 M3.31 55.88 C13.3 43.57, 23.51 31.88, 49.89 2.3 M3.05 62.28 C13.42 49.63, 24.43 36.68, 56.19 1.15 M3.05 62.28 C16.24 45.75, 30.37 30.42, 56.19 1.15 M3.45 67.92 C21.43 47.13, 40.37 25.91, 61.18 1.51 M3.45 67.92 C24.29 45.1, 43.04 22.16, 61.18 1.51 M3.19 74.32 C21.65 48.97, 44.56 25.73, 66.82 1.11 M3.19 74.32 C20.57 54.39, 38.3 33.54, 66.82 1.11 M2.92 80.72 C28.07 52.89, 51.82 22.91, 71.81 1.47 M2.92 80.72 C28.07 49.8, 55.61 20.65, 71.81 1.47 M3.32 86.36 C24.35 60.23, 49.37 36.53, 77.45 1.08 M3.32 86.36 C25.74 61.59, 46.04 36.13, 77.45 1.08 M3.06 92.76 C36.34 58.5, 68.13 18.99, 82.44 1.44 M3.06 92.76 C34.52 56.52, 65.53 19.72, 82.44 1.44 M3.45 98.4 C26.5 72.38, 50.32 41.45, 88.08 1.04 M3.45 98.4 C25.93 71.13, 50.46 43.92, 88.08 1.04 M3.19 104.8 C23.46 79.12, 46.11 55.46, 93.07 1.4 M3.19 104.8 C34.81 68.64, 66.81 31, 93.07 1.4 M2.93 111.2 C29.45 79.09, 60.43 49.6, 98.71 1.01 M2.93 111.2 C28.88 81.95, 53.5 52.02, 98.71 1.01 M3.32 116.84 C39.9 73.09, 78.86 28.42, 103.7 1.37 M3.32 116.84 C41.92 71.79, 80.57 28.64, 103.7 1.37 M3.06 123.24 C31.16 90.99, 56.01 61.28, 108.69 1.73 M3.06 123.24 C43.92 78.59, 81.38 34.45, 108.69 1.73 M3.46 128.88 C45.39 81.41, 87.98 34.92, 114.33 1.34 M3.46 128.88 C33.94 92.48, 64.63 54.61, 114.33 1.34 M3.2 135.28 C28.91 110.62, 50.03 82.74, 119.32 1.7 M3.2 135.28 C44.98 86.9, 88.17 38.75, 119.32 1.7 M2.93 141.68 C51.21 87, 95.73 31.14, 124.96 1.3 M2.93 141.68 C35.71 104.8, 69.41 66.81, 124.96 1.3 M3.33 147.32 C32.03 112.08, 65.96 78.69, 129.95 1.66 M3.33 147.32 C45.18 100.84, 85.76 53.24, 129.95 1.66 M3.07 153.72 C37 117.56, 68.26 77.81, 135.59 1.27 M3.07 153.72 C54.19 93.8, 106.64 34.09, 135.59 1.27 M3.46 159.36 C58.61 101.07, 110.03 41.74, 140.58 1.63 M3.46 159.36 C30.8 127.56, 57.66 94.18, 140.58 1.63 M3.2 165.76 C36.59 126.58, 69.69 86.73, 146.22 1.23 M3.2 165.76 C49.05 115.53, 92.23 63.87, 146.22 1.23 M2.94 172.16 C53.46 114.27, 105.58 54.71, 151.21 1.59 M2.94 172.16 C39.11 131.39, 74.86 90.45, 151.21 1.59 M3.33 177.8 C42.17 133.99, 78.48 89.6, 156.85 1.2 M3.33 177.8 C59.19 113.37, 114.92 48.57, 156.85 1.2 M4.38 182.69 C49.98 129.37, 97.32 72.57, 161.84 1.56 M4.38 182.69 C52.41 125.02, 103.06 68.46, 161.84 1.56 M4.78 188.33 C50.37 136.18, 95.61 84.85, 167.48 1.16 M4.78 188.33 C46.2 141.01, 87.17 94.28, 167.48 1.16 M6.49 192.46 C70.99 117.92, 133.85 44.02, 172.47 1.52 M6.49 192.46 C46.57 144.03, 87.32 97.84, 172.47 1.52 M8.19 196.6 C58.36 138.48, 108.69 80.55, 178.11 1.13 M8.19 196.6 C71.64 125.59, 134.12 52.32, 178.11 1.13 M10.56 199.98 C71.04 129.47, 133.82 56.18, 183.1 1.49 M10.56 199.98 C58.34 143.5, 106.07 88.29, 183.1 1.49 M12.92 203.36 C81.76 123.28, 154.32 41.98, 188.74 1.09 M12.92 203.36 C63.21 145.73, 113.3 87.3, 188.74 1.09 M15.94 205.98 C75.86 135.66, 134.5 65.9, 193.73 1.45 M15.94 205.98 C82.96 128.01, 149.72 49.96, 193.73 1.45 M18.96 208.6 C59.87 158.44, 105.87 111, 199.37 1.06 M18.96 208.6 C63.23 154.83, 110.69 101.29, 199.37 1.06 M21.97 211.23 C73.69 154.52, 123.67 95.27, 204.36 1.42 M21.97 211.23 C85.9 137.58, 151.12 62.52, 204.36 1.42 M26.31 212.34 C98.61 129.37, 170.23 43.85, 210 1.03 M26.31 212.34 C81.95 147.5, 137.97 83.71, 210 1.03 M29.98 214.21 C84.34 150.97, 137.71 92.31, 214.99 1.39 M29.98 214.21 C90.33 143.14, 151.73 72.46, 214.99 1.39 M34.31 215.33 C80.84 163.53, 124.09 115.67, 220.63 0.99 M34.31 215.33 C96.66 142.51, 159.05 71.04, 220.63 0.99 M37.99 217.2 C95.23 150.25, 154.55 83.26, 225.62 1.35 M37.99 217.2 C90.12 156.55, 142.12 97.69, 225.62 1.35 M42.97 217.56 C80.69 173.27, 120.3 128.38, 230.61 1.71 M42.97 217.56 C88.9 163.02, 136.33 110.5, 230.61 1.71 M47.3 218.67 C92 166.05, 139.24 114.08, 236.25 1.32 M47.3 218.67 C100.3 158.46, 152.24 97.19, 236.25 1.32 M52.29 219.03 C122.69 135.45, 193.3 55.83, 241.24 1.68 M52.29 219.03 C89.18 174.59, 127.82 129.64, 241.24 1.68 M56.62 220.15 C99.43 172.67, 143.55 124.45, 246.88 1.28 M56.62 220.15 C105.09 163.63, 155.76 106.26, 246.88 1.28 M62.27 219.75 C116.52 158.05, 170.01 97.96, 251.87 1.64 M62.27 219.75 C129.97 141.31, 197.05 63.56, 251.87 1.64 M67.25 220.11 C128.34 146.47, 192.52 73.57, 257.51 1.25 M67.25 220.11 C119.35 158.64, 171.23 99.15, 257.51 1.25 M72.9 219.72 C126.46 158.02, 179.85 96.24, 262.5 1.61 M72.9 219.72 C134.94 147.57, 196.76 75.47, 262.5 1.61 M77.88 220.08 C136.92 152.21, 198.24 85.39, 268.14 1.21 M77.88 220.08 C153.43 135.62, 227.71 48.7, 268.14 1.21 M83.53 219.68 C121.18 176.03, 159.28 133.5, 273.13 1.57 M83.53 219.68 C147.47 146.16, 210.45 73.87, 273.13 1.57 M88.51 220.04 C134.71 168.4, 178.31 118.64, 278.77 1.18 M88.51 220.04 C133.44 168.8, 176.82 118.09, 278.77 1.18 M94.16 219.65 C146.1 157.02, 202.96 95.14, 283.76 1.54 M94.16 219.65 C141.81 164.54, 189.77 109.29, 283.76 1.54 M99.14 220.01 C137.79 174.59, 178.23 128.43, 289.4 1.14 M99.14 220.01 C143.17 169.44, 188.32 118.8, 289.4 1.14 M104.79 219.62 C154.4 160.84, 206.37 102.83, 294.39 1.5 M104.79 219.62 C171.55 141.63, 240.33 62.81, 294.39 1.5 M109.77 219.98 C168.18 149.74, 227.79 80.52, 300.03 1.11 M109.77 219.98 C177.96 142.16, 247.67 61.98, 300.03 1.11 M115.42 219.58 C165.76 163.16, 216.2 107.08, 305.02 1.47 M115.42 219.58 C192.54 132.05, 267.95 45.08, 305.02 1.47 M120.4 219.94 C168.77 164.41, 216.91 109.1, 310.66 1.07 M120.4 219.94 C162.47 170.84, 204.82 122.48, 310.66 1.07 M126.05 219.55 C184.02 153.39, 241.19 88.2, 315.65 1.43 M126.05 219.55 C180.9 155.91, 235.46 91.9, 315.65 1.43 M131.03 219.91 C186.71 154.73, 241.27 90.87, 321.29 1.04 M131.03 219.91 C196.31 148.09, 259.67 74.77, 321.29 1.04 M136.68 219.51 C175.04 176.33, 214.05 131.82, 326.28 1.4 M136.68 219.51 C184.58 164.32, 231.62 110.95, 326.28 1.4 M141.66 219.87 C202.84 147.95, 263.53 76.51, 331.92 1.01 M141.66 219.87 C193.97 162.65, 243.53 105.2, 331.92 1.01 M147.31 219.48 C202.03 162.05, 253.5 100, 336.91 1.37 M147.31 219.48 C194.2 163.95, 242.74 109.4, 336.91 1.37 M152.29 219.84 C191.28 176.91, 229.8 133.68, 341.89 1.73 M152.29 219.84 C208.4 154.55, 265.92 89.27, 341.89 1.73 M157.94 219.44 C199.11 172.32, 240.96 124.07, 346.23 2.84 M157.94 219.44 C228.98 138.32, 299.47 56.32, 346.23 2.84 M162.92 219.8 C202.01 173.57, 244.69 124.79, 351.21 3.2 M162.92 219.8 C229.49 144.38, 295.03 68.93, 351.21 3.2 M168.57 219.41 C213.97 165.12, 263.82 109.9, 356.2 3.56 M168.57 219.41 C217.64 163.81, 266.37 108.53, 356.2 3.56 M173.55 219.77 C212.41 176.7, 251.61 132.62, 360.53 4.68 M173.55 219.77 C224.98 159.36, 275.91 100.14, 360.53 4.68 M178.54 220.13 C248.74 144.29, 315.75 66.31, 364.86 5.79 M178.54 220.13 C219.66 173.72, 261.05 126.29, 364.86 5.79 M184.18 219.73 C230.72 165.99, 277.5 112.29, 368.54 7.66 M184.18 219.73 C246.57 145.92, 309.58 72.52, 368.54 7.66 M189.17 220.09 C233.2 166.36, 280.95 112.53, 373.52 8.02 M189.17 220.09 C257.1 140.13, 327.49 58.68, 373.52 8.02 M194.81 219.7 C264.89 138.44, 333.21 59.62, 375.89 11.4 M194.81 219.7 C261.52 144.51, 327.75 67.83, 375.89 11.4 M199.8 220.06 C270.67 141.29, 339.94 61.2, 378.9 14.02 M199.8 220.06 C254 156.7, 309.92 92.71, 378.9 14.02 M205.44 219.66 C253.62 163.5, 303.5 106.35, 381.92 16.65 M205.44 219.66 C271.16 144.84, 338.48 68.32, 381.92 16.65 M210.43 220.02 C276.34 143.65, 343 65.54, 384.94 19.27 M210.43 220.02 C276.54 144.99, 341.39 68.48, 384.94 19.27 M216.07 219.63 C277.2 152.04, 337.57 82.48, 387.3 22.65 M216.07 219.63 C274.22 152.6, 333.17 85.02, 387.3 22.65 M221.06 219.99 C288.7 144.62, 355.69 67.49, 389.01 26.78 M221.06 219.99 C259.55 177.71, 296.99 132.92, 389.01 26.78 M226.7 219.6 C269.7 169.4, 314.3 116.76, 390.72 30.92 M226.7 219.6 C270.73 171.42, 314.02 121.24, 390.72 30.92 M231.69 219.96 C282.46 162.86, 335.08 105.93, 392.43 35.05 M231.69 219.96 C277.62 168.33, 322.69 115.92, 392.43 35.05 M237.33 219.56 C274.55 174.63, 315.44 130.32, 394.79 38.43 M237.33 219.56 C278.09 173.1, 318.98 126.96, 394.79 38.43 M242.32 219.92 C272.69 183.89, 306.1 150.7, 395.18 44.07 M242.32 219.92 C277.45 176.88, 314.72 135.9, 395.18 44.07 M247.96 219.53 C295.62 163.48, 342.96 109.41, 395.58 49.72 M247.96 219.53 C290.7 169.65, 334.77 120.31, 395.58 49.72 M252.95 219.89 C283.72 185.54, 314.82 146.5, 395.32 56.11 M252.95 219.89 C309.01 154.97, 364.3 92.09, 395.32 56.11 M258.59 219.49 C300.53 170.55, 344.15 119.37, 395.71 61.76 M258.59 219.49 C289.65 182.19, 322.63 144.95, 395.71 61.76 M263.58 219.85 C309.93 166.92, 355.64 117.27, 395.45 68.16 M263.58 219.85 C302.95 174.52, 341.08 128.68, 395.45 68.16 M269.22 219.46 C305.14 180.51, 337.09 140.41, 395.84 73.8 M269.22 219.46 C296.53 187.29, 324.04 157.16, 395.84 73.8 M274.21 219.82 C299.03 188, 323.63 160.84, 395.58 80.2 M274.21 219.82 C311.84 179.07, 346.76 136.39, 395.58 80.2 M279.85 219.42 C321.75 170.48, 362.92 121.01, 395.32 86.59 M279.85 219.42 C311.36 183.21, 343.57 146.41, 395.32 86.59 M284.84 219.78 C316.86 181.76, 346.16 145.84, 395.72 92.24 M284.84 219.78 C308.05 192.6, 330.54 164.92, 395.72 92.24 M290.48 219.39 C316.09 189.1, 339.48 163.25, 395.45 98.64 M290.48 219.39 C319.4 187.48, 349.26 152.19, 395.45 98.64 M295.47 219.75 C324.88 185.88, 354.01 148.91, 395.85 104.28 M295.47 219.75 C319.1 191.75, 343.53 164.06, 395.85 104.28 M301.11 219.35 C329.42 189.71, 354.28 155, 395.59 110.68 M301.11 219.35 C323.64 193.74, 347.45 166.9, 395.59 110.68 M306.1 219.71 C325.99 198.94, 344.41 174.19, 395.33 117.07 M306.1 219.71 C331.11 190.52, 355.59 162.6, 395.33 117.07 M311.74 219.32 C336.63 188.25, 367.08 157.57, 395.72 122.72 M311.74 219.32 C344.39 182.49, 378.57 144.15, 395.72 122.72 M316.73 219.68 C337.96 195.08, 356.67 170.1, 395.46 129.11 M316.73 219.68 C345.75 184.91, 375.4 153.18, 395.46 129.11 M321.72 220.04 C346.6 192.6, 370.77 166.32, 395.85 134.76 M321.72 220.04 C342.68 195.46, 364.4 168.98, 395.85 134.76 M327.36 219.65 C347.07 199.55, 365.47 179.12, 395.59 141.16 M327.36 219.65 C345.29 199.49, 364.8 178.12, 395.59 141.16 M332.35 220.01 C353.58 197.77, 371.75 175.11, 395.33 147.55 M332.35 220.01 C352.6 195.15, 375.09 171.39, 395.33 147.55 M337.99 219.61 C356.92 194.77, 380.08 171.97, 395.72 153.2 M337.99 219.61 C352.7 201.5, 370.38 181.69, 395.72 153.2 M342.98 219.97 C354.42 205.21, 365.7 189.93, 395.46 159.59 M342.98 219.97 C357.12 204.31, 368.69 188.22, 395.46 159.59 M348.62 219.58 C361.32 205.02, 372.47 188.37, 395.86 165.24 M348.62 219.58 C359.14 208.23, 368.37 196.47, 395.86 165.24 M354.92 218.43 C366.57 203.57, 380.49 186.78, 395.6 171.64 M354.92 218.43 C370 200.8, 386.31 181.59, 395.6 171.64 M363.19 215.01 C368.92 209.06, 374.64 201.18, 392.05 181.81 M363.19 215.01 C369.91 206.03, 377.09 199.1, 392.05 181.81 M372.77 210.09 C376.63 205.66, 383.82 199.1, 387.86 192.73 M372.77 210.09 C376.89 206.96, 378.86 202.77, 387.86 192.73" stroke="#a5d8ff" stroke-width="0.5" fill="none"></path><path d="M54.44 0 M54.44 0 C167.82 2.32, 279.47 1.97, 339.21 0 M54.44 0 C121.44 -1.07, 190.34 -0.97, 339.21 0 M339.21 0 C373.7 -1.16, 391.72 19.8, 393.64 54.44 M339.21 0 C375.55 -0.07, 395.49 17.41, 393.64 54.44 M393.64 54.44 C391.06 92.3, 394.55 128.44, 393.64 163.31 M393.64 54.44 C393.6 96.75, 394.34 139.69, 393.64 163.31 M393.64 163.31 C393.13 200.64, 375.21 216.64, 339.21 217.74 M393.64 163.31 C394.24 198.44, 376.83 216.55, 339.21 217.74 M339.21 217.74 C235.19 218.92, 129.33 216.07, 54.44 217.74 M339.21 217.74 C234.54 217.22, 129.94 217.83, 54.44 217.74 M54.44 217.74 C16.69 219.37, 0.94 197.66, 0 163.31 M54.44 217.74 C17.09 218.62, 0.74 199.18, 0 163.31 M0 163.31 C-1.56 132.1, -1.24 99.1, 0 54.44 M0 163.31 C-0.62 136.83, -0.67 108.05, 0 54.44 M0 54.44 C-0.47 17.56, 17.22 -1.17, 54.44 0 M0 54.44 C2 17.22, 18.52 1.16, 54.44 0" stroke="#1e1e1e" stroke-width="1" fill="none"></path></g><g stroke-linecap="round"><g transform="translate(935.7061530768992 903.1300934353571) rotate(0 196.39149273035798 -0.5702280762786813)"><path d="M-0.51 -0.55 C65.24 -0.89, 327.6 -2.53, 393.29 -2.92 M1.43 1.78 C67.18 1.67, 327.39 -1.01, 392.72 -1.59" stroke="#1e1e1e" stroke-width="1" fill="none"></path></g></g><mask></mask><g transform="translate(1084.38795130104 866.7665916746332) rotate(0 49.23207947793276 14.059894380048036)"><text x="0" y="0" font-family="Virgil, Segoe UI Emoji" font-size="22.49583100807668px" fill="#1e1e1e" text-anchor="start" style="white-space: pre;" direction="ltr" dominant-baseline="text-before-edge">Category</text></g><g transform="translate(995.3419821656646 935.1913966884031) rotate(0 101.69229663189981 56.23957752019169)"><text x="0" y="0" font-family="Virgil, Segoe UI Emoji" font-size="22.49583100807668px" fill="#1e1e1e" text-anchor="start" style="white-space: pre;" direction="ltr" dominant-baseline="text-before-edge">name: string</text><text x="0" y="28.11978876009585" font-family="Virgil, Segoe UI Emoji" font-size="22.49583100807668px" fill="#1e1e1e" text-anchor="start" style="white-space: pre;" direction="ltr" dominant-baseline="text-before-edge">description?: string</text><text x="0" y="56.2395775201917" font-family="Virgil, Segoe UI Emoji" font-size="22.49583100807668px" fill="#1e1e1e" text-anchor="start" style="white-space: pre;" direction="ltr" dominant-baseline="text-before-edge">is_active: boolean</text><text x="0" y="84.35936628028756" font-family="Virgil, Segoe UI Emoji" font-size="22.49583100807668px" fill="#1e1e1e" text-anchor="start" style="white-space: pre;" direction="ltr" dominant-baseline="text-before-edge">created_at: date</text></g><g stroke-linecap="round" transform="translate(814.1667556762693 636.6505422071932) rotate(0 286.25 324.1666793823242)"><path d="M190.34 18.19 C207.77 5.61, 231.79 4.6, 252.95 1.76 C274.11 -1.07, 296.05 -1.54, 317.29 1.19 C338.52 3.93, 360.22 10.23, 380.36 18.17 C400.5 26.1, 420.06 36.14, 438.11 48.79 C456.15 61.44, 473.57 76.97, 488.63 94.05 C503.68 111.14, 517.26 130.85, 528.43 151.3 C539.61 171.75, 548.69 194.12, 555.67 216.75 C562.65 239.37, 567.7 263.2, 570.31 287.05 C572.92 310.9, 573.57 335.8, 571.3 359.86 C569.04 383.92, 563.8 408.53, 556.73 431.4 C549.65 454.27, 540.28 476.8, 528.87 497.07 C517.46 517.35, 503.29 536.09, 488.29 553.04 C473.28 569.99, 456.61 585.85, 438.83 598.78 C421.06 611.72, 401.77 622.72, 381.65 630.66 C361.53 638.6, 339.43 643.75, 318.14 646.42 C296.84 649.1, 274.97 649.53, 253.89 646.71 C232.81 643.88, 211.42 637.35, 191.65 629.48 C171.87 621.6, 153.1 611.95, 135.24 599.43 C117.38 586.91, 99.83 571.52, 84.48 554.36 C69.13 537.21, 54.58 517.1, 43.16 496.51 C31.75 475.92, 22.75 453.53, 16 430.82 C9.24 408.1, 4.85 384.04, 2.61 360.21 C0.38 336.38, 0.44 311.5, 2.59 287.86 C4.74 264.22, 8.6 241, 15.5 218.37 C22.4 195.73, 32.59 172.42, 44.01 152.03 C55.43 131.65, 69.06 112.93, 84.02 96.05 C98.99 79.18, 112.72 64.72, 133.81 50.78 C154.9 36.85, 194.58 18.74, 210.55 12.45 C226.52 6.16, 228.53 8.02, 229.63 13.06 M154.99 35.19 C171.06 19.86, 195.44 15.91, 215.85 9.83 C236.26 3.75, 256.13 -0.91, 277.45 -1.29 C298.77 -1.68, 322.66 2.72, 343.77 7.54 C364.88 12.36, 385.09 17.88, 404.11 27.63 C423.14 37.38, 441.1 51.6, 457.9 66.03 C474.7 80.46, 491.22 95.99, 504.92 114.21 C518.61 132.43, 530.12 154.04, 540.07 175.34 C550.01 196.63, 559.31 218.8, 564.6 242 C569.89 265.2, 571.38 290.24, 571.81 314.54 C572.24 338.84, 571.14 363.98, 567.19 387.81 C563.23 411.65, 556.82 435.66, 548.08 457.56 C539.35 479.46, 527.61 500.27, 514.77 519.21 C501.93 538.14, 487.29 555.42, 471.02 571.17 C454.75 586.91, 436.24 602.69, 417.14 613.67 C398.05 624.64, 376.93 631.4, 356.45 637 C335.98 642.6, 315.45 646.33, 294.27 647.27 C273.09 648.2, 250.43 647.01, 229.38 642.6 C208.33 638.19, 187.01 630.83, 167.96 620.81 C148.9 610.8, 131.79 597.2, 115.04 582.53 C98.3 567.85, 81.26 551.18, 67.49 532.75 C53.72 514.33, 42.3 493.49, 32.43 471.96 C22.57 450.43, 13.65 426.57, 8.28 403.57 C2.91 380.56, 0.89 357.56, 0.23 333.94 C-0.43 310.32, 0.02 285.77, 4.33 261.86 C8.63 237.95, 17.04 212.66, 26.06 190.49 C35.08 168.32, 46.01 147.8, 58.47 128.83 C70.92 109.86, 84.75 92.29, 100.79 76.67 C116.83 61.05, 145.05 41.04, 154.7 35.11 C164.35 29.18, 156.23 36.32, 158.7 41.11" stroke="#1e1e1e" stroke-width="1" fill="none"></path></g><g transform="translate(1126.0640166765447 798.4930005796123) rotate(0 40.72454912632713 17.203694519845158)"><text x="0" y="0" font-family="Virgil, Segoe UI Emoji" font-size="27.525911231752282px" fill="#000000" text-anchor="start" style="white-space: pre;" direction="ltr" dominant-baseline="text-before-edge">Entity</text></g><g transform="translate(1009.5905588564651 1106.8234840205978) rotate(0 89.99561762589997 33.883918652729335)"><text x="0" y="0" font-family="Virgil, Segoe UI Emoji" font-size="54.21426984436693px" fill="#000000" text-anchor="start" style="white-space: pre;" direction="ltr" dominant-baseline="text-before-edge">Domain</text></g><g stroke-linecap="round" transform="translate(526.6667992728096 394.3885956652714) rotate(0 565.4762595040457 618.8689259120396)"><path d="M407.88 24.54 C433.14 5.81, 467.44 8.46, 497.41 4.6 C527.39 0.74, 557.69 0.23, 587.72 1.37 C617.75 2.51, 647.95 5.01, 677.59 11.43 C707.24 17.86, 737.28 28.22, 765.58 39.92 C793.88 51.61, 821.25 65.08, 847.39 81.6 C873.52 98.12, 898.77 118.02, 922.39 139.03 C946 160.04, 968.89 182.84, 989.07 207.65 C1009.25 232.47, 1027.54 259.78, 1043.48 287.91 C1059.42 316.04, 1072.73 346.06, 1084.7 376.42 C1096.66 406.79, 1107.94 438.28, 1115.26 470.1 C1122.58 501.92, 1126.23 534.33, 1128.6 567.33 C1130.98 600.33, 1131.69 635.13, 1129.5 668.11 C1127.3 701.08, 1122.84 733.16, 1115.43 765.19 C1108.03 797.22, 1097.04 829.62, 1085.07 860.29 C1073.09 890.96, 1059.58 921.26, 1043.59 949.21 C1027.6 977.16, 1009.04 1003.18, 989.12 1028 C969.21 1052.82, 947.35 1077.02, 924.1 1098.12 C900.85 1119.22, 875.83 1138.09, 849.62 1154.59 C823.41 1171.09, 795.22 1185.51, 766.84 1197.11 C738.45 1208.72, 709.06 1217.68, 679.3 1224.22 C649.54 1230.77, 618.64 1234.74, 588.29 1236.39 C557.95 1238.05, 527.11 1238.03, 497.21 1234.17 C467.31 1230.31, 437.76 1222.51, 408.87 1213.25 C379.99 1203.98, 351.37 1192.55, 323.89 1178.59 C296.42 1164.62, 268.92 1148.3, 244.02 1129.47 C219.12 1110.64, 196.27 1088.49, 174.48 1065.59 C152.7 1042.7, 131.45 1018.42, 113.34 992.11 C95.23 965.79, 79.77 937.11, 65.84 907.68 C51.92 878.26, 39.45 846.91, 29.81 815.55 C20.17 784.2, 13.05 752.29, 7.99 719.55 C2.93 686.81, -0.55 652.14, -0.56 619.11 C-0.57 586.08, 2.95 553.87, 7.94 521.37 C12.92 488.87, 20 455.7, 29.35 424.12 C38.71 392.53, 50.23 361.41, 64.09 331.87 C77.94 302.33, 94.28 273.32, 112.47 246.87 C130.66 220.42, 151.49 196.04, 173.22 173.15 C194.95 150.26, 218.02 128.44, 242.84 109.54 C267.65 90.64, 293.85 74.03, 322.1 59.75 C350.35 45.46, 396.15 28.3, 412.33 23.83 C428.51 19.36, 416.74 23.18, 419.17 32.93 M464.46 8.9 C491.18 -6.68, 523.95 1.45, 554.22 0.79 C584.48 0.12, 615.81 0.39, 646.04 4.92 C676.26 9.44, 706.57 17.68, 735.56 27.95 C764.54 38.21, 793.36 51.44, 819.96 66.49 C846.57 81.55, 870.74 98.9, 895.18 118.26 C919.63 137.62, 944.93 159.54, 966.61 182.66 C988.28 205.77, 1007.94 230.25, 1025.25 256.97 C1042.56 283.69, 1057.32 313.46, 1070.46 343 C1083.59 372.54, 1094.8 402.82, 1104.08 434.22 C1113.37 465.63, 1121.5 498.32, 1126.16 531.45 C1130.83 564.59, 1133.07 599.52, 1132.07 633.02 C1131.07 666.52, 1125.85 700.18, 1120.17 732.45 C1114.49 764.72, 1108.05 795.46, 1097.99 826.63 C1087.92 857.8, 1074.33 890.55, 1059.79 919.47 C1045.26 948.39, 1029.47 974.43, 1010.79 1000.13 C992.1 1025.82, 970 1050.97, 947.66 1073.62 C925.32 1096.27, 901.75 1117.6, 876.74 1136.02 C851.72 1154.44, 825.02 1170.53, 797.57 1184.12 C770.11 1197.71, 741.13 1209.33, 712 1217.56 C682.88 1225.78, 653.02 1230.12, 622.81 1233.47 C592.59 1236.82, 560.85 1239.7, 530.72 1237.64 C500.59 1235.58, 471.54 1228.66, 442.05 1221.09 C412.55 1213.52, 381.92 1204.5, 353.75 1192.22 C325.57 1179.93, 298.74 1164.25, 272.99 1147.37 C247.24 1130.5, 222.27 1112.52, 199.26 1090.97 C176.25 1069.41, 154.42 1043.65, 134.93 1018.04 C115.45 992.44, 98.27 965.71, 82.37 937.35 C66.46 908.99, 50.73 878.61, 39.5 847.89 C28.27 817.16, 21.6 785.17, 14.96 753 C8.33 720.83, 1.67 687.6, -0.32 654.87 C-2.31 622.15, -0.11 589.64, 3 556.64 C6.11 523.63, 10.45 489.03, 18.33 456.86 C26.2 424.69, 37.44 393.59, 50.26 363.62 C63.08 333.64, 78.5 304.75, 95.25 277.03 C112 249.31, 130.48 221.6, 150.75 197.31 C171.03 173.02, 193.08 151.43, 216.9 131.31 C240.73 111.19, 267.07 92.32, 293.69 76.59 C320.32 60.87, 348.43 48.13, 376.67 36.96 C404.9 25.79, 448.35 11.98, 463.09 9.58 C477.84 7.18, 463.08 12.43, 465.14 22.58" stroke="#1e1e1e" stroke-width="1" fill="none"></path></g><g transform="translate(953.346326559453 1312.9571326902965) rotate(0 141.04447633875554 34.58332061767578)"><text x="0" y="0" font-family="Virgil, Segoe UI Emoji" font-size="55.333312988281364px" fill="#1e1e1e" text-anchor="start" style="white-space: pre;" direction="ltr" dominant-baseline="text-before-edge">Application</text></g><g stroke-linecap="round" transform="translate(913.8413265314568 1390.3615098367422) rotate(0 177.78537342446702 98.34081780811812)"><path d="M6.89 19.24 C6.89 19.24, 6.89 19.24, 6.89 19.24 M6.89 19.24 C6.89 19.24, 6.89 19.24, 6.89 19.24 M3.35 29.41 C8.54 24.5, 12.3 16.91, 18.44 12.05 M3.35 29.41 C8.96 23.3, 15.26 16.89, 18.44 12.05 M1.12 38.07 C7.96 27.36, 16.35 20.06, 29.98 4.86 M1.12 38.07 C9.87 29.83, 17.45 19, 29.98 4.86 M0.86 44.47 C13.73 28.48, 26.73 15.86, 35.63 4.47 M0.86 44.47 C13.76 30.86, 26.21 16.52, 35.63 4.47 M1.25 50.11 C15.32 34.54, 24.83 20.86, 41.93 3.32 M1.25 50.11 C15.67 34.67, 29.49 17.86, 41.93 3.32 M0.99 56.51 C16.13 39.73, 31.13 24.84, 49.54 0.66 M0.99 56.51 C12.09 45.18, 21.17 33.78, 49.54 0.66 M1.38 62.15 C21.29 42.2, 38.61 21.22, 55.18 0.27 M1.38 62.15 C16.1 45.7, 30.32 30.96, 55.18 0.27 M1.12 68.55 C17.62 47.18, 36.64 25.48, 60.17 0.63 M1.12 68.55 C18.76 48.48, 38.67 26.78, 60.17 0.63 M0.86 74.95 C16.59 57.67, 32.07 37.76, 65.81 0.23 M0.86 74.95 C26.15 46.17, 52.84 15.31, 65.81 0.23 M1.25 80.59 C24.75 51.1, 47.94 27.06, 70.8 0.59 M1.25 80.59 C24.74 54.48, 46.91 26.39, 70.8 0.59 M0.99 86.99 C16.44 68.01, 32.54 50.87, 76.44 0.2 M0.99 86.99 C16.62 68.08, 31.99 50.13, 76.44 0.2 M1.39 92.63 C21.24 75.12, 36.39 55.08, 81.43 0.56 M1.39 92.63 C33.24 56.69, 63.67 22.91, 81.43 0.56 M1.13 99.03 C33.07 63.34, 65.21 27.17, 87.07 0.16 M1.13 99.03 C31.02 65.36, 61.16 31.06, 87.07 0.16 M0.86 105.43 C23.48 76.81, 48.07 48.76, 92.06 0.52 M0.86 105.43 C29.13 71.81, 58.37 38.91, 92.06 0.52 M1.26 111.07 C23.17 85.7, 42.81 66.25, 97.7 0.13 M1.26 111.07 C32.47 75.1, 63.47 41.04, 97.7 0.13 M1 117.47 C31.88 83.01, 59.99 47.95, 102.69 0.49 M1 117.47 C42.77 71.72, 81.51 24.95, 102.69 0.49 M1.39 123.11 C36.91 82.1, 72.84 40.87, 108.33 0.09 M1.39 123.11 C26.67 92.76, 51.88 63.83, 108.33 0.09 M1.13 129.51 C25.22 101.17, 52.39 75.16, 113.32 0.45 M1.13 129.51 C26.42 100.32, 50.03 72.67, 113.32 0.45 M0.87 135.91 C42.94 89.1, 81.48 43.08, 118.3 0.81 M0.87 135.91 C32.45 101.88, 63.48 66.23, 118.3 0.81 M1.26 141.55 C27.56 108.92, 54.92 74.78, 123.95 0.42 M1.26 141.55 C28.36 111.97, 55.13 81.13, 123.95 0.42 M1 147.95 C44.45 99.94, 84.85 51.29, 128.93 0.78 M1 147.95 C46.1 93.16, 93.63 40.54, 128.93 0.78 M1.4 153.59 C35.26 114.62, 68.23 78.99, 134.58 0.39 M1.4 153.59 C48.58 97.54, 96.66 43.54, 134.58 0.39 M1.14 159.99 C53.04 101.22, 103.65 40.89, 139.56 0.75 M1.14 159.99 C53.23 100.97, 105.88 42.33, 139.56 0.75 M2.84 164.12 C38.61 124.54, 71.31 86.1, 145.21 0.35 M2.84 164.12 C35.62 126.03, 67.45 89.62, 145.21 0.35 M4.55 168.26 C38.38 127.9, 74.74 86.7, 150.19 0.71 M4.55 168.26 C50.57 117.85, 94.18 66.38, 150.19 0.71 M5.6 173.14 C54.89 113.4, 106.76 56.7, 155.84 0.32 M5.6 173.14 C56.54 114.31, 107.91 54.43, 155.84 0.32 M7.31 177.28 C60.61 116.04, 110.48 56.89, 160.82 0.68 M7.31 177.28 C48.49 129.88, 91.44 81.14, 160.82 0.68 M9.67 180.66 C55.31 129.46, 102.09 77.09, 166.47 0.28 M9.67 180.66 C49.99 135.26, 89.68 89.64, 166.47 0.28 M12.03 184.04 C63.54 124.95, 113.61 65.45, 171.45 0.64 M12.03 184.04 C66.11 124.04, 119.19 62.77, 171.45 0.64 M15.05 186.66 C47.24 150.26, 79.16 111.02, 177.1 0.25 M15.05 186.66 C52.98 142.8, 90.98 98.64, 177.1 0.25 M18.07 189.28 C59.06 143.18, 100.17 94.66, 182.08 0.61 M18.07 189.28 C60 140.91, 101.12 94.17, 182.08 0.61 M21.09 191.91 C60.46 147.93, 99.99 103.79, 187.73 0.21 M21.09 191.91 C55.11 152.95, 90.12 114.43, 187.73 0.21 M25.42 193.02 C75.56 138.45, 124.61 81.53, 192.71 0.57 M25.42 193.02 C85.58 122.67, 147 51.99, 192.71 0.57 M29.09 194.89 C73.72 139.44, 121.71 85.97, 198.36 0.18 M29.09 194.89 C97.43 117.67, 163.68 39.63, 198.36 0.18 M33.43 196.01 C71.08 154.95, 108.36 112.29, 203.34 0.54 M33.43 196.01 C82.5 141.89, 129.28 87.5, 203.34 0.54 M38.41 196.37 C87.04 140.98, 136.72 85.52, 208.99 0.14 M38.41 196.37 C86.91 142.94, 133.91 90, 208.99 0.14 M43.4 196.73 C88.95 142.54, 134.64 93.13, 213.98 0.5 M43.4 196.73 C77.05 157.14, 111.67 117.31, 213.98 0.5 M48.39 197.09 C103.82 133.78, 159.94 69.29, 219.62 0.11 M48.39 197.09 C90.58 149.28, 131.55 101.32, 219.62 0.11 M52.06 198.96 C101.59 143.97, 149.55 86.69, 224.61 0.47 M52.06 198.96 C86.64 158.86, 122.45 119.22, 224.61 0.47 M57.05 199.32 C116.71 130.17, 179.89 61.14, 229.59 0.83 M57.05 199.32 C113.14 135.47, 169.05 72.1, 229.59 0.83 M62.69 198.92 C99.58 154.79, 138.6 110.56, 235.24 0.43 M62.69 198.92 C119.85 133.03, 177.42 67.75, 235.24 0.43 M67.68 199.28 C107.38 153.62, 145.11 107.65, 240.22 0.79 M67.68 199.28 C115.25 147.4, 162.02 93.58, 240.22 0.79 M73.32 198.89 C110.63 154.81, 147.63 112.56, 245.87 0.4 M73.32 198.89 C129.91 131.19, 187.04 65.96, 245.87 0.4 M78.31 199.25 C127.85 140.38, 178.71 83.97, 250.85 0.76 M78.31 199.25 C124.93 143.68, 172.64 87.21, 250.85 0.76 M83.95 198.85 C133.94 137.63, 185.78 78.09, 256.5 0.37 M83.95 198.85 C137.57 137.32, 190.77 74.85, 256.5 0.37 M88.94 199.21 C157.23 122.84, 224.18 41.81, 261.48 0.73 M88.94 199.21 C133.06 147.35, 178.62 94.85, 261.48 0.73 M94.58 198.82 C146.91 138.88, 199.49 77.55, 267.13 0.33 M94.58 198.82 C139.34 146.35, 185.89 93.83, 267.13 0.33 M99.57 199.18 C145.53 143.19, 192.29 91.68, 272.11 0.69 M99.57 199.18 C161.59 126.4, 223.18 54.96, 272.11 0.69 M105.21 198.79 C165.95 128.96, 225.94 59.9, 277.76 0.3 M105.21 198.79 C169.45 124.43, 233.22 51.88, 277.76 0.3 M110.2 199.15 C175.34 124.27, 239.87 50.6, 282.74 0.66 M110.2 199.15 C154.44 146.59, 199.5 95.92, 282.74 0.66 M115.84 198.75 C179.31 127.51, 242.86 53.63, 288.39 0.26 M115.84 198.75 C162.56 144.95, 208.6 90.51, 288.39 0.26 M120.83 199.11 C190.32 120.17, 258.58 41.21, 293.37 0.62 M120.83 199.11 C165.05 148.61, 209.04 96.45, 293.37 0.62 M126.47 198.72 C189.3 127.76, 252.85 57.03, 299.02 0.23 M126.47 198.72 C161.63 156.21, 195.82 116.26, 299.02 0.23 M131.46 199.08 C197.65 119.01, 267.16 41.36, 304 0.59 M131.46 199.08 C200.24 122.57, 267.48 45.1, 304 0.59 M137.1 198.68 C197.78 130.73, 257.66 64.07, 308.33 1.7 M137.1 198.68 C186.56 141.9, 235.64 86.17, 308.33 1.7 M142.09 199.04 C190.94 141.99, 238.17 85.93, 313.32 2.06 M142.09 199.04 C198.6 134.55, 254.43 69.66, 313.32 2.06 M147.73 198.65 C184.34 155.06, 224.01 111.15, 318.31 2.42 M147.73 198.65 C181.56 159.42, 216.56 118.38, 318.31 2.42 M152.72 199.01 C199.92 145.38, 248.1 90.16, 323.95 2.03 M152.72 199.01 C197.86 149.44, 240.97 98.36, 323.95 2.03 M157.71 199.37 C207.87 140.03, 262.01 81.2, 327.63 3.9 M157.71 199.37 C215.03 132.98, 271.39 68.23, 327.63 3.9 M163.35 198.97 C211.09 146.21, 255.24 92.28, 331.96 5.01 M163.35 198.97 C198.82 160.01, 232.64 120.65, 331.96 5.01 M168.34 199.33 C230.67 124.88, 292.85 52.94, 335.63 6.88 M168.34 199.33 C204.98 157.33, 242.02 113.62, 335.63 6.88 M173.98 198.94 C225.26 138.45, 278.49 79.57, 338.65 9.51 M173.98 198.94 C226.6 137.27, 280.06 75.29, 338.65 9.51 M178.97 199.3 C215.19 154.47, 256.25 111.37, 342.33 11.38 M178.97 199.3 C227.89 141.28, 278.12 84.4, 342.33 11.38 M184.61 198.9 C225.15 151.39, 268.34 103.02, 345.34 14 M184.61 198.9 C215.94 162.47, 248.56 123.51, 345.34 14 M189.6 199.26 C245.99 132.2, 306.44 64.61, 347.71 17.38 M189.6 199.26 C251.06 126.86, 312.69 57.19, 347.71 17.38 M195.24 198.87 C249.28 134.81, 303.01 73.21, 350.07 20.76 M195.24 198.87 C251.24 135.72, 304 73.5, 350.07 20.76 M200.23 199.23 C238.79 153.68, 279.12 109.98, 351.78 24.89 M200.23 199.23 C255.76 133.58, 311.14 70.21, 351.78 24.89 M205.87 198.84 C237.24 161.14, 272.75 122.47, 353.48 29.03 M205.87 198.84 C251.6 146.04, 296.26 93.07, 353.48 29.03 M210.86 199.2 C252.74 150.82, 294.07 105.87, 355.19 33.16 M210.86 199.2 C254.02 148.29, 298.66 97.22, 355.19 33.16 M216.5 198.8 C262.52 148.53, 309.5 93.66, 355.58 38.8 M216.5 198.8 C264.75 143.24, 313.21 85.87, 355.58 38.8 M221.49 199.16 C251.41 164.31, 278.97 133.24, 356.64 43.69 M221.49 199.16 C271.2 141.32, 320.08 84.56, 356.64 43.69 M227.13 198.77 C268.21 154.64, 306.63 107.56, 356.37 50.09 M227.13 198.77 C277.57 140.42, 325.79 83.42, 356.37 50.09 M232.12 199.13 C271.03 154.04, 312.87 106.62, 356.11 56.49 M232.12 199.13 C264.2 161.73, 296.97 124.32, 356.11 56.49 M237.76 198.73 C282.06 151.09, 321.33 102.11, 356.51 62.13 M237.76 198.73 C264.78 165.81, 291.95 134.4, 356.51 62.13 M242.75 199.09 C273.04 163.92, 302.75 130.14, 356.25 68.53 M242.75 199.09 C267.24 172, 290.6 144.07, 356.25 68.53 M248.39 198.7 C283.38 159.13, 317.1 120.28, 356.64 74.17 M248.39 198.7 C288.21 152.21, 327.43 107.45, 356.64 74.17 M253.38 199.06 C276.22 175.51, 297.62 151.29, 356.38 80.57 M253.38 199.06 C275 173.65, 295.43 150.33, 356.38 80.57 M259.02 198.66 C281.25 175.38, 304.25 148.48, 356.12 86.97 M259.02 198.66 C294.66 158.06, 331.59 118.22, 356.12 86.97 M264.01 199.02 C292.42 164.53, 321.74 134.49, 356.51 92.61 M264.01 199.02 C293.27 166.58, 320.63 135.23, 356.51 92.61 M269.65 198.63 C292.96 170.11, 316.3 144.42, 356.25 99.01 M269.65 198.63 C292.26 172.54, 316.05 145.77, 356.25 99.01 M274.64 198.99 C293.57 181.26, 308.57 160.79, 356.64 104.65 M274.64 198.99 C302.99 164.79, 333.07 131.58, 356.64 104.65 M280.28 198.59 C300.4 173.6, 323.1 152.92, 356.38 111.05 M280.28 198.59 C295.36 181.74, 310.36 163.22, 356.38 111.05 M285.27 198.95 C311.06 168.55, 335.37 140.71, 356.12 117.45 M285.27 198.95 C307.91 173.25, 329.82 148.04, 356.12 117.45 M290.91 198.56 C308.35 180.18, 323.76 160.68, 356.52 123.09 M290.91 198.56 C314.64 171.78, 339.75 142.9, 356.52 123.09 M295.9 198.92 C314.72 178.9, 333.71 157.56, 356.26 129.49 M295.9 198.92 C310.81 181.01, 325.09 163.01, 356.26 129.49 M300.88 199.28 C320.65 175.52, 344.38 152.75, 356.65 135.13 M300.88 199.28 C315.13 183.29, 328.95 167.25, 356.65 135.13 M306.53 198.88 C325.69 179.52, 342.1 156.99, 356.39 141.53 M306.53 198.88 C323.82 177.24, 342.64 157, 356.39 141.53 M313.48 196.98 C325.48 182.47, 334.82 168.99, 356.13 147.92 M313.48 196.98 C323.35 186.21, 332.15 175.48, 356.13 147.92 M319.78 195.83 C332.34 179.2, 348.19 165.48, 355.87 154.32 M319.78 195.83 C329.47 185.89, 337.3 175.57, 355.87 154.32 M326.08 194.68 C334.15 184.11, 344.39 174.66, 354.95 161.47 M326.08 194.68 C335.78 184.18, 346.52 172.92, 354.95 161.47 M330.41 195.8 C339.99 183.92, 350.02 174.86, 356 166.36 M330.41 195.8 C338.84 187.57, 345.68 178.86, 356 166.36" stroke="#b2f2bb" stroke-width="0.5" fill="none"></path><path d="M49.17 0 M49.17 0 C123.83 0.01, 194.26 0.37, 306.4 0 M49.17 0 C125.39 -0.81, 202.54 0.49, 306.4 0 M306.4 0 C338.5 -1.12, 354.94 18.15, 355.57 49.17 M306.4 0 C337.72 0.02, 354.42 18.44, 355.57 49.17 M355.57 49.17 C355.8 72.29, 356.5 95.76, 355.57 147.51 M355.57 49.17 C355.56 83.1, 357.03 118.84, 355.57 147.51 M355.57 147.51 C354.85 180.26, 338.08 195.18, 306.4 196.68 M355.57 147.51 C356.47 178.27, 341.13 197.69, 306.4 196.68 M306.4 196.68 C213.75 195.58, 116.7 196.52, 49.17 196.68 M306.4 196.68 C217.6 199.03, 129.02 199.13, 49.17 196.68 M49.17 196.68 C15.08 197.75, 1.78 180.86, 0 147.51 M49.17 196.68 C17.02 196.17, -0.4 179.78, 0 147.51 M0 147.51 C-0.06 125.17, -1.6 100.63, 0 49.17 M0 147.51 C0.16 107.52, 1.1 69.68, 0 49.17 M0 49.17 C-1.85 18.25, 16.08 1.55, 49.17 0 M0 49.17 C-1.89 15.09, 17.99 -0.58, 49.17 0" stroke="#000000" stroke-width="1" fill="none"></path></g><g stroke-linecap="round"><g transform="translate(917.0339078976579 1441.1149729495814) rotate(0 177.35807353440703 -1.0893584457849101)"><path d="M1.15 0.72 C60.21 0.14, 295.36 -2.35, 354.42 -2.9 M0.3 0.05 C59.18 -0.43, 294.22 -1.44, 353.37 -1.69" stroke="#000000" stroke-width="1" fill="none"></path></g></g><mask></mask><g transform="translate(1033.1595221495163 1405.882671933703) rotate(0 61.93357381788371 16.45420297953956)"><text x="0" y="0" font-family="Virgil, Segoe UI Emoji" font-size="26.326724767263254px" fill="#1e1e1e" text-anchor="start" style="white-space: pre;" direction="ltr" dominant-baseline="text-before-edge">Use Case</text></g><g transform="translate(957.4701884436345 1470.602603938882) rotate(0 110.70869620505141 55.70537218970708)"><text x="0" y="0" font-family="Virgil, Segoe UI Emoji" font-size="29.709531834510454px" fill="#1e1e1e" text-anchor="start" style="white-space: pre;" direction="ltr" dominant-baseline="text-before-edge">Create    List</text><text x="0" y="37.13691479313807" font-family="Virgil, Segoe UI Emoji" font-size="29.709531834510454px" fill="#1e1e1e" text-anchor="start" style="white-space: pre;" direction="ltr" dominant-baseline="text-before-edge">Update    Get</text><text x="0" y="74.27382958627614" font-family="Virgil, Segoe UI Emoji" font-size="29.709531834510454px" fill="#1e1e1e" text-anchor="start" style="white-space: pre;" direction="ltr" dominant-baseline="text-before-edge">Delete</text></g><g stroke-linecap="round" transform="translate(162.94478724527607 100.3028424785009) rotate(0 906.6773342717217 919.3629029881521)"><path d="M514.33 90.19 C541.13 60.14, 586.71 57.5, 623.39 45.3 C660.06 33.1, 696.56 24.08, 734.37 16.98 C772.18 9.89, 811.56 5.32, 850.25 2.73 C888.94 0.14, 927.96 -1.01, 966.51 1.44 C1005.07 3.89, 1043.62 9.74, 1081.58 17.45 C1119.54 25.15, 1157.49 35.29, 1194.25 47.66 C1231.01 60.03, 1267.33 74.47, 1302.15 91.65 C1336.96 108.84, 1370.87 129.34, 1403.14 150.76 C1435.41 172.18, 1466.51 194.95, 1495.78 220.17 C1525.04 245.39, 1552.83 272.82, 1578.74 302.07 C1604.66 331.33, 1629.3 363.31, 1651.27 395.73 C1673.24 428.15, 1692.73 461.81, 1710.56 496.61 C1728.39 531.41, 1744.71 567.83, 1758.25 604.51 C1771.78 641.19, 1783.34 678.44, 1791.77 716.68 C1800.19 754.91, 1805.32 794.74, 1808.82 833.92 C1812.32 873.09, 1814.06 912.65, 1812.76 951.73 C1811.47 990.82, 1807.4 1030.02, 1801.04 1068.45 C1794.67 1106.88, 1785.7 1144.79, 1774.55 1182.33 C1763.39 1219.87, 1749.56 1257.74, 1734.1 1293.7 C1718.64 1329.66, 1701.91 1364.65, 1681.78 1398.09 C1661.66 1431.53, 1637.71 1463.73, 1613.35 1494.34 C1589 1524.95, 1563.38 1554.44, 1535.65 1581.73 C1507.91 1609.03, 1477.83 1634.9, 1446.96 1658.1 C1416.09 1681.31, 1384.18 1702.05, 1350.42 1720.97 C1316.67 1739.89, 1280.5 1757.08, 1244.41 1771.63 C1208.33 1786.18, 1171.16 1798.2, 1133.9 1808.29 C1096.63 1818.38, 1058.89 1827.12, 1020.83 1832.17 C982.77 1837.22, 944.16 1838.77, 905.53 1838.59 C866.9 1838.41, 827.55 1836.1, 789.05 1831.09 C750.56 1826.08, 712.12 1818.51, 674.57 1808.51 C637.01 1798.51, 599.48 1785.91, 563.73 1771.09 C527.97 1756.27, 493.45 1738.87, 460.04 1719.57 C426.63 1700.26, 394.15 1678.66, 363.27 1655.24 C332.4 1631.82, 302.67 1606.31, 274.79 1579.05 C246.9 1551.8, 220.16 1522.43, 195.95 1491.69 C171.74 1460.96, 149.51 1428.21, 129.52 1394.63 C109.53 1361.05, 91.41 1326.2, 76 1290.22 C60.59 1254.24, 47.74 1216.36, 37.05 1178.74 C26.37 1141.11, 17.96 1103.13, 11.9 1064.47 C5.84 1025.81, 1.85 986.17, 0.68 946.78 C-0.49 907.39, 1.21 867.07, 4.89 828.15 C8.57 789.23, 14.29 751.44, 22.76 713.25 C31.22 675.06, 42.2 635.94, 55.67 599.02 C69.14 562.09, 85.62 526.38, 103.57 491.7 C121.52 457.01, 141.24 422.74, 163.38 390.91 C185.52 359.09, 210.18 329.6, 236.42 300.74 C262.66 271.88, 291.39 243.2, 320.82 217.76 C350.24 192.33, 374.78 172.09, 412.96 148.13 C451.14 124.18, 520.37 85.68, 549.89 74.03 C579.4 62.38, 584.22 63.95, 590.05 78.22 M1155.28 33.81 C1194.78 29.7, 1230.14 60.08, 1265.48 76.01 C1300.82 91.94, 1334.02 109.4, 1367.34 129.36 C1400.66 149.32, 1434.93 171.81, 1465.42 195.78 C1495.91 219.74, 1523.33 245.45, 1550.29 273.17 C1577.25 300.9, 1603.54 331.16, 1627.19 362.13 C1650.85 393.1, 1672.92 425.09, 1692.21 458.99 C1711.51 492.89, 1728.04 529.35, 1742.94 565.52 C1757.84 601.68, 1771.31 638.1, 1781.62 676 C1791.93 713.91, 1799.66 753.75, 1804.81 792.94 C1809.97 832.13, 1812.19 872.07, 1812.55 911.13 C1812.91 950.2, 1811.32 988.79, 1806.98 1027.35 C1802.64 1065.9, 1795.92 1104.33, 1786.49 1142.45 C1777.06 1180.57, 1764.47 1219.36, 1750.38 1256.07 C1736.29 1292.77, 1720.65 1328.48, 1701.96 1362.69 C1683.27 1396.91, 1661.06 1429.84, 1638.23 1461.35 C1615.39 1492.86, 1591.26 1523.32, 1564.94 1551.73 C1538.62 1580.15, 1510.45 1607.11, 1480.29 1631.82 C1450.13 1656.54, 1417.05 1679.37, 1383.98 1700.05 C1350.91 1720.72, 1316.86 1739.39, 1281.88 1755.88 C1246.9 1772.38, 1211.15 1787.67, 1174.12 1799.01 C1137.09 1810.35, 1097.79 1817.58, 1059.71 1823.91 C1021.63 1830.25, 983.84 1834.96, 945.64 1837.03 C907.45 1839.1, 869.19 1839.76, 830.52 1836.33 C791.85 1832.91, 751.62 1825.13, 713.64 1816.47 C675.66 1807.81, 638.98 1797.06, 602.63 1784.37 C566.28 1771.68, 530.24 1757.95, 495.55 1740.33 C460.86 1722.71, 426.13 1700.75, 394.48 1678.63 C362.83 1656.51, 334.23 1633.51, 305.66 1607.63 C277.1 1581.75, 248.6 1553.03, 223.11 1523.36 C197.62 1493.69, 174.42 1462.42, 152.71 1429.61 C130.99 1396.8, 110.03 1361.68, 92.83 1326.51 C75.63 1291.35, 61.64 1255.79, 49.49 1218.63 C37.34 1181.47, 27.89 1141.83, 19.94 1103.55 C11.99 1065.27, 5 1028.01, 1.79 988.94 C-1.42 949.87, -1.58 908.25, 0.69 869.14 C2.95 830.02, 8.43 792.82, 15.39 754.24 C22.35 715.67, 30.79 675.34, 42.46 637.67 C54.12 600.01, 68.92 563.4, 85.38 528.25 C101.83 493.11, 120.48 459.64, 141.2 426.79 C161.92 393.94, 185.06 361.31, 209.71 331.16 C234.35 301, 260.86 272.37, 289.07 245.87 C317.29 219.37, 347.28 195.04, 379.01 172.17 C410.73 149.29, 445.16 127.45, 479.42 108.62 C513.69 89.79, 548.36 73.15, 584.6 59.18 C620.84 45.21, 659.51 33.75, 696.87 24.81 C734.22 15.88, 770.62 9.51, 808.74 5.57 C846.87 1.64, 886.76 0.42, 925.63 1.2 C964.5 1.98, 1003.76 4.34, 1041.98 10.25 C1080.2 16.16, 1136.92 29.69, 1154.96 36.66 C1173 43.63, 1154.08 37.33, 1150.21 52.06" stroke="#1e1e1e" stroke-width="1" fill="none"></path></g><g transform="translate(996.5951380913818 1697.6296262704814) rotate(0 84.2726058959961 40.59522356305797)"><text x="0" y="0" font-family="Virgil, Segoe UI Emoji" font-size="64.95235770089275px" fill="#1e1e1e" text-anchor="start" style="white-space: pre;" direction="ltr" dominant-baseline="text-before-edge">Infra</text></g><g stroke-linecap="round" transform="translate(1513.921596834988 1442.0409272293596) rotate(0 140.75900209219492 47.848769688105904)"><path d="M5.71 6.29 C5.71 6.29, 5.71 6.29, 5.71 6.29 M5.71 6.29 C5.71 6.29, 5.71 6.29, 5.71 6.29 M0.2 18.73 C3.87 16.5, 5.61 11.39, 14.64 2.12 M0.2 18.73 C4.78 13.78, 7.52 11.02, 14.64 2.12 M0.6 24.37 C3.63 20.33, 8.31 15.3, 20.28 1.73 M0.6 24.37 C6.32 17.42, 11.03 12.53, 20.28 1.73 M0.34 30.77 C6.55 19.98, 16.62 13.96, 25.92 1.33 M0.34 30.77 C8.42 21.22, 16.42 12.2, 25.92 1.33 M0.73 36.41 C7.76 25.21, 17.87 15.29, 30.91 1.69 M0.73 36.41 C11.86 25.16, 21.34 11.63, 30.91 1.69 M0.47 42.81 C13.05 31.35, 21.46 14.92, 36.55 1.3 M0.47 42.81 C8.38 33.12, 16.6 23.48, 36.55 1.3 M0.21 49.21 C8.27 38.63, 19.01 27.77, 41.54 1.66 M0.21 49.21 C9.71 38.41, 17.78 29.29, 41.54 1.66 M0.6 54.85 C13.75 37.7, 31.17 21.13, 47.18 1.26 M0.6 54.85 C13.68 40.91, 26.65 25.08, 47.18 1.26 M0.34 61.25 C11.06 46.31, 21.34 34.95, 52.17 1.62 M0.34 61.25 C12.76 47.48, 26.04 32.79, 52.17 1.62 M0.73 66.89 C14.31 50.79, 26.16 39.39, 57.81 1.23 M0.73 66.89 C15.05 50.26, 30.55 32.07, 57.81 1.23 M0.47 73.29 C19.34 51.57, 37.04 31.05, 62.8 1.59 M0.47 73.29 C12.71 58.33, 26.06 42.8, 62.8 1.59 M1.52 78.18 C26.64 52.73, 50.81 25.12, 68.44 1.2 M1.52 78.18 C20.43 56.61, 36.47 36.96, 68.44 1.2 M2.57 83.06 C31.01 50.5, 61.63 19.98, 73.43 1.56 M2.57 83.06 C27.89 51.64, 56.48 20.77, 73.43 1.56 M4.28 87.2 C21.58 63.85, 42.02 41.79, 78.42 1.92 M4.28 87.2 C24.19 64.94, 43.41 41.77, 78.42 1.92 M7.3 89.82 C33.73 62.02, 58.38 31.84, 84.06 1.52 M7.3 89.82 C23.47 70.71, 39.1 52.67, 84.06 1.52 M9.66 93.2 C36.7 64.55, 60.17 31.5, 89.05 1.88 M9.66 93.2 C35.18 63.67, 59.67 34.44, 89.05 1.88 M13.99 94.32 C45.85 57.96, 76.69 25.35, 94.69 1.49 M13.99 94.32 C36.71 69.68, 58.04 43.29, 94.69 1.49 M18.32 95.43 C47.6 60.05, 78.93 28.52, 99.68 1.85 M18.32 95.43 C34.33 75.72, 53.23 55.03, 99.68 1.85 M23.31 95.79 C47.36 65.23, 75.22 35.95, 105.32 1.45 M23.31 95.79 C50.53 65.93, 77.07 35.56, 105.32 1.45 M26.33 98.41 C43.8 76.22, 66.32 54.49, 110.31 1.81 M26.33 98.41 C43.16 78.53, 59.94 59.21, 110.31 1.81 M31.97 98.02 C60.91 65.13, 89.91 29.53, 115.95 1.42 M31.97 98.02 C63.34 60.49, 97.04 20.95, 115.95 1.42 M36.96 98.38 C68.31 62.57, 101.28 26.27, 120.94 1.78 M36.96 98.38 C59.59 72.33, 83 45.81, 120.94 1.78 M42.6 97.99 C62.98 73.24, 84.88 46, 126.58 1.38 M42.6 97.99 C70.87 66.38, 99.7 32.17, 126.58 1.38 M47.59 98.35 C76.29 64.16, 102.99 31.47, 131.57 1.74 M47.59 98.35 C67.9 76.02, 86.28 53.83, 131.57 1.74 M53.23 97.95 C74.08 75.13, 92.57 53.42, 137.21 1.35 M53.23 97.95 C79.48 68.06, 106.38 38.48, 137.21 1.35 M58.22 98.31 C77.25 79.11, 91.67 56.92, 142.2 1.71 M58.22 98.31 C81.79 70.06, 106 44.6, 142.2 1.71 M63.86 97.92 C90.81 63.03, 121.98 30.95, 147.84 1.31 M63.86 97.92 C82.08 76.68, 101.63 53.83, 147.84 1.31 M68.85 98.28 C101.07 61.08, 134.38 26.91, 152.83 1.67 M68.85 98.28 C85.82 77.04, 105.98 57.35, 152.83 1.67 M74.49 97.88 C106.01 63.9, 134.28 29.28, 158.47 1.28 M74.49 97.88 C100.75 67.05, 128.47 34.81, 158.47 1.28 M79.48 98.24 C99.93 77.92, 117.84 55.52, 163.46 1.64 M79.48 98.24 C97.88 77.14, 118.83 55.06, 163.46 1.64 M85.12 97.85 C110.76 68.57, 139.54 36.11, 169.1 1.24 M85.12 97.85 C105.43 75.2, 125.48 53.13, 169.1 1.24 M90.11 98.21 C120.41 59.11, 153.63 23.83, 174.09 1.6 M90.11 98.21 C115.56 68.34, 142.4 36.93, 174.09 1.6 M95.75 97.81 C125.85 62.29, 155.05 27.69, 179.73 1.21 M95.75 97.81 C118.99 70.49, 143.08 42.18, 179.73 1.21 M100.74 98.17 C124.56 69.97, 149.27 43.66, 184.72 1.57 M100.74 98.17 C119.44 76.21, 138.64 53.88, 184.72 1.57 M106.38 97.78 C129.94 67.1, 156.06 40.41, 189.7 1.93 M106.38 97.78 C136.43 61.82, 168.1 27.73, 189.7 1.93 M111.37 98.14 C133.31 73.38, 152.08 52.36, 195.35 1.54 M111.37 98.14 C142.82 60.47, 176.9 24.1, 195.35 1.54 M117.01 97.74 C147.57 63.15, 179.34 23.63, 200.33 1.9 M117.01 97.74 C143.3 66.14, 170.37 36.38, 200.33 1.9 M122 98.1 C152.91 66.82, 179.21 32.23, 205.98 1.5 M122 98.1 C149.71 68.07, 177.96 37.11, 205.98 1.5 M127.64 97.71 C161.76 59.61, 195.17 18.7, 210.96 1.86 M127.64 97.71 C155.98 65.66, 183.43 34.23, 210.96 1.86 M132.63 98.07 C159.92 67.94, 186.18 33.64, 216.61 1.47 M132.63 98.07 C152.91 74.08, 172.1 51.7, 216.61 1.47 M137.62 98.43 C168.09 62.81, 201.05 26.51, 221.59 1.83 M137.62 98.43 C165.79 66.63, 191.25 35.68, 221.59 1.83 M143.26 98.04 C174.46 64.36, 202.97 29.26, 227.24 1.43 M143.26 98.04 C164.99 72.92, 187.27 46.8, 227.24 1.43 M148.25 98.4 C169.88 72.2, 190.52 49.79, 232.22 1.79 M148.25 98.4 C180.09 61.43, 212.01 24.75, 232.22 1.79 M153.89 98 C176.84 70.15, 199.88 46.16, 237.87 1.4 M153.89 98 C188.04 60.7, 220.44 23.45, 237.87 1.4 M158.88 98.36 C175.93 75.7, 197.7 53.61, 242.85 1.76 M158.88 98.36 C183.81 69.59, 209.06 40.74, 242.85 1.76 M164.52 97.97 C185.19 74.39, 207.88 46.74, 248.5 1.36 M164.52 97.97 C193.41 65.49, 222.98 32.79, 248.5 1.36 M169.51 98.33 C199.95 60.31, 234.46 22.22, 253.48 1.72 M169.51 98.33 C192.24 72.73, 213.6 48.61, 253.48 1.72 M175.15 97.93 C208.55 59.65, 241.74 19.5, 259.13 1.33 M175.15 97.93 C200.23 69.17, 223.89 42.23, 259.13 1.33 M180.14 98.29 C201.31 71.72, 225.41 46.67, 264.11 1.69 M180.14 98.29 C210.14 61.43, 241.98 25.92, 264.11 1.69 M185.78 97.9 C218.21 61.04, 245.96 27.37, 269.1 2.05 M185.78 97.9 C217.22 63.18, 245.48 29.78, 269.1 2.05 M190.77 98.26 C215.16 66.57, 243.16 37.11, 272.12 4.67 M190.77 98.26 C214.03 72.01, 238.09 45.41, 272.12 4.67 M196.41 97.86 C218.45 68, 244.94 42.75, 275.8 6.54 M196.41 97.86 C221.59 69.23, 244.76 42.07, 275.8 6.54 M201.4 98.22 C222.21 71.13, 245.39 47.42, 277.5 10.68 M201.4 98.22 C231.57 64.67, 261.75 30.11, 277.5 10.68 M207.04 97.83 C232.23 68.75, 255.42 43.27, 279.86 14.06 M207.04 97.83 C227.07 77.33, 244.17 54.52, 279.86 14.06 M212.03 98.19 C236.99 69.93, 261.74 41.02, 281.57 18.19 M212.03 98.19 C229.27 77.31, 246.7 57.28, 281.57 18.19 M217.67 97.79 C232.74 80.03, 246.76 60.42, 281.31 24.59 M217.67 97.79 C240.82 72.99, 262.59 46.95, 281.31 24.59 M222.66 98.15 C235.81 82.64, 248.41 70.16, 281.7 30.23 M222.66 98.15 C243.58 73.5, 262.98 49.54, 281.7 30.23 M228.3 97.76 C242.41 83.74, 252.41 67.84, 281.44 36.63 M228.3 97.76 C244.3 79.3, 259.32 61.29, 281.44 36.63 M233.29 98.12 C245.06 87.63, 253.91 75.71, 281.18 43.03 M233.29 98.12 C248.75 80.25, 263.66 62.05, 281.18 43.03 M238.93 97.72 C254.21 79.39, 270.72 60.33, 281.58 48.67 M238.93 97.72 C249.42 87.31, 259.84 74.92, 281.58 48.67 M243.92 98.08 C258.22 81.8, 269.82 65.92, 281.31 55.07 M243.92 98.08 C257.43 83.63, 268.89 67.5, 281.31 55.07 M249.56 97.69 C259 88.15, 268.31 78.38, 281.71 60.71 M249.56 97.69 C257.44 87.81, 267.28 77.9, 281.71 60.71 M254.55 98.05 C261.88 88.78, 266.16 84.32, 281.45 67.11 M254.55 98.05 C264.78 87.11, 273.06 76.2, 281.45 67.11 M260.19 97.66 C268.75 88.27, 273.92 82.15, 282.5 72 M260.19 97.66 C266.25 90.01, 272.96 82.26, 282.5 72 M266.49 96.51 C268.63 92.67, 274.48 90.63, 280.93 79.9 M266.49 96.51 C269.47 93.59, 272.67 89.21, 280.93 79.9" stroke="#ffec99" stroke-width="0.5" fill="none"></path><path d="M23.92 0 M23.92 0 C98.34 0.45, 174.13 1.06, 257.59 0 M23.92 0 C85.31 0.52, 145.24 0.76, 257.59 0 M257.59 0 C274.79 1.3, 283.15 8.62, 281.52 23.92 M257.59 0 C274.74 1.25, 283.22 8.66, 281.52 23.92 M281.52 23.92 C282.3 32.67, 282.5 45.68, 281.52 71.77 M281.52 23.92 C280.47 42.08, 281.61 57.76, 281.52 71.77 M281.52 71.77 C283.23 89.45, 274.99 94.78, 257.59 95.7 M281.52 71.77 C283.26 85.43, 272.2 93.8, 257.59 95.7 M257.59 95.7 C203.77 97.85, 146.9 96.1, 23.92 95.7 M257.59 95.7 C192.34 95.19, 127.97 95.19, 23.92 95.7 M23.92 95.7 C8 96.18, -1.9 86.21, 0 71.77 M23.92 95.7 C9.54 96.38, -0.06 86.82, 0 71.77 M0 71.77 C-1.64 54.37, -2.14 37.28, 0 23.92 M0 71.77 C0.39 54.03, -0.84 33.93, 0 23.92 M0 23.92 C1.93 6.45, 9.56 0.07, 23.92 0 M0 23.92 C-1.98 10.14, 7.59 1.83, 23.92 0" stroke="#1e1e1e" stroke-width="1" fill="none"></path></g><g stroke-linecap="round" transform="translate(521.5090419321043 1593.5725444652167) rotate(0 133.76437377929688 44.54351806640625)"><path d="M2.81 9.07 C2.81 9.07, 2.81 9.07, 2.81 9.07 M2.81 9.07 C2.81 9.07, 2.81 9.07, 2.81 9.07 M0.58 17.73 C2.04 15.99, 6.52 10.79, 11.08 5.66 M0.58 17.73 C4.45 14, 7.14 10.48, 11.08 5.66 M0.98 23.37 C6.54 13.97, 15.48 9.65, 18.03 3.75 M0.98 23.37 C5.77 18.26, 7.72 14.73, 18.03 3.75 M0.71 29.77 C8.53 23.57, 12.3 12.79, 24.99 1.85 M0.71 29.77 C4.95 24.44, 10.87 17.95, 24.99 1.85 M1.11 35.41 C7.07 26.04, 15.74 19.64, 29.98 2.21 M1.11 35.41 C11.46 24.26, 20.2 13.21, 29.98 2.21 M0.85 41.81 C11.59 29.34, 23.93 14.33, 35.62 1.81 M0.85 41.81 C8.47 33.54, 15.67 25.69, 35.62 1.81 M0.59 48.21 C15.85 30.63, 31.56 14.97, 40.61 2.17 M0.59 48.21 C12.28 35.4, 22.74 24.24, 40.61 2.17 M0.98 53.85 C10.62 41.43, 20.38 30.18, 46.25 1.78 M0.98 53.85 C17.55 35.57, 33.14 17.66, 46.25 1.78 M0.72 60.25 C11.34 46.91, 26.51 29.13, 51.24 2.14 M0.72 60.25 C19.8 37.26, 39.11 14.8, 51.24 2.14 M1.11 65.89 C13.33 50.99, 24.76 39.16, 56.22 2.5 M1.11 65.89 C17.04 46.38, 35.67 25.75, 56.22 2.5 M0.85 72.29 C19.09 49.02, 39.67 24.46, 61.87 2.1 M0.85 72.29 C14.71 57.26, 27.35 42.07, 61.87 2.1 M2.56 76.43 C29.09 50.42, 52.37 19.46, 66.85 2.46 M2.56 76.43 C28.79 47.51, 53.87 18.31, 66.85 2.46 M4.27 80.56 C27.88 50.82, 54.48 23.01, 72.5 2.07 M4.27 80.56 C26.53 55.08, 50.48 27.06, 72.5 2.07 M6.63 83.94 C34.7 52.83, 58.64 21.24, 77.48 2.43 M6.63 83.94 C34.83 51.95, 62.2 21.48, 77.48 2.43 M9.65 86.56 C25.54 67.97, 42.68 50.45, 83.13 2.03 M9.65 86.56 C29.93 62.84, 51.04 40.03, 83.13 2.03 M13.32 88.43 C30.55 67.35, 47.14 47.52, 88.11 2.4 M13.32 88.43 C31.5 65.14, 51.97 43.83, 88.11 2.4 M18.31 88.79 C43.35 59.85, 70.12 32.17, 93.76 2 M18.31 88.79 C33.67 70.39, 49.14 51.63, 93.76 2 M22.64 89.91 C36.29 73.94, 51.6 54.22, 98.74 2.36 M22.64 89.91 C46.74 62.9, 68.44 36.36, 98.74 2.36 M28.28 89.51 C44.12 69.54, 62.26 46, 104.39 1.97 M28.28 89.51 C45.72 67.85, 61.99 48.89, 104.39 1.97 M33.27 89.87 C52.5 70.18, 70.74 45.7, 109.37 2.33 M33.27 89.87 C63.11 54.72, 94.55 21.12, 109.37 2.33 M38.91 89.48 C67.71 53.39, 97.82 17.05, 115.02 1.93 M38.91 89.48 C62.3 62.94, 85.26 34.16, 115.02 1.93 M43.9 89.84 C70.51 56.35, 98.51 24.27, 120 2.29 M43.9 89.84 C67.02 64.19, 88.95 37.64, 120 2.29 M49.54 89.44 C69.17 67.09, 88.32 43.76, 125.65 1.9 M49.54 89.44 C77.46 58.62, 104.58 27.51, 125.65 1.9 M54.53 89.8 C78.19 63.04, 103.58 35.57, 130.63 2.26 M54.53 89.8 C81.3 59.47, 108.22 27.84, 130.63 2.26 M60.17 89.41 C81.08 63.41, 103.77 36.41, 136.28 1.86 M60.17 89.41 C84.07 62.76, 108.25 35.61, 136.28 1.86 M65.16 89.77 C82.39 71.67, 97.26 51.47, 141.26 2.22 M65.16 89.77 C83.71 67.49, 102.7 45.57, 141.26 2.22 M70.8 89.37 C89.18 69.84, 103.92 48.8, 146.91 1.83 M70.8 89.37 C90.53 67.27, 109.61 43.96, 146.91 1.83 M75.79 89.73 C105.21 57.08, 134.98 22.86, 151.89 2.19 M75.79 89.73 C93.98 68.02, 112.53 48.91, 151.89 2.19 M81.43 89.34 C112.15 52.95, 140.15 19.31, 157.54 1.79 M81.43 89.34 C108.55 58.09, 135.29 27.61, 157.54 1.79 M86.42 89.7 C112.39 59.51, 136.2 30.51, 162.52 2.15 M86.42 89.7 C106.92 67.04, 126.23 44.34, 162.52 2.15 M92.06 89.31 C119.77 56.81, 151.32 24.89, 167.51 2.51 M92.06 89.31 C114.03 64.39, 133.81 40.37, 167.51 2.51 M97.05 89.67 C123.07 60.1, 148.31 33.18, 173.15 2.12 M97.05 89.67 C117.92 67.35, 137.04 45.03, 173.15 2.12 M102.69 89.27 C131.54 55.73, 161.42 21.44, 178.14 2.48 M102.69 89.27 C129.3 58.27, 156.25 27.41, 178.14 2.48 M107.68 89.63 C128.24 69.4, 145.37 48.49, 183.78 2.08 M107.68 89.63 C127.89 65.48, 149.49 41.09, 183.78 2.08 M112.67 89.99 C131.61 68.03, 145.67 51.15, 188.77 2.44 M112.67 89.99 C132.06 67.32, 153.53 42.38, 188.77 2.44 M118.31 89.6 C138.35 64.35, 160.98 40.56, 194.41 2.05 M118.31 89.6 C145.3 57.76, 173.81 26.3, 194.41 2.05 M123.3 89.96 C154.04 54.47, 183.36 20.79, 199.4 2.41 M123.3 89.96 C149 60.64, 174.54 30.22, 199.4 2.41 M128.94 89.56 C148.44 66.78, 168.16 43.83, 205.04 2.02 M128.94 89.56 C146.98 70.3, 163.88 50.42, 205.04 2.02 M133.93 89.92 C160.32 59.85, 187.36 30.59, 210.03 2.38 M133.93 89.92 C150.23 69.29, 167.02 49.8, 210.03 2.38 M139.57 89.53 C156.54 73.41, 171.77 53.29, 215.67 1.98 M139.57 89.53 C154.97 72.49, 170.62 55.84, 215.67 1.98 M144.56 89.89 C164.79 66.67, 181.86 48.31, 220.66 2.34 M144.56 89.89 C164.02 69.31, 182.21 46.22, 220.66 2.34 M150.2 89.49 C171.43 62.86, 191.93 38.69, 226.3 1.95 M150.2 89.49 C174.4 61.41, 199.34 32.85, 226.3 1.95 M155.19 89.85 C170.57 72.58, 185.26 55.58, 231.29 2.31 M155.19 89.85 C174.75 67.81, 193.38 44.97, 231.29 2.31 M160.83 89.46 C178.72 70.71, 192.78 52.95, 236.93 1.91 M160.83 89.46 C190 55.54, 219.88 22.54, 236.93 1.91 M165.82 89.82 C182.05 68.38, 199.1 50.75, 241.92 2.27 M165.82 89.82 C193.56 59.42, 219.74 29.07, 241.92 2.27 M171.46 89.42 C198.98 58.84, 228.33 25.13, 247.56 1.88 M171.46 89.42 C195.54 61.56, 220.86 33.35, 247.56 1.88 M176.45 89.78 C201.96 61.73, 224.48 36.05, 251.9 2.99 M176.45 89.78 C204.68 56.54, 234.44 23.42, 251.9 2.99 M182.09 89.39 C199.36 70.97, 215.67 51.68, 256.88 3.35 M182.09 89.39 C198.51 70.28, 215.71 52.61, 256.88 3.35 M187.08 89.75 C211.07 64.22, 234.18 37.4, 259.9 5.98 M187.08 89.75 C204.35 68.44, 222.76 49.08, 259.9 5.98 M192.72 89.36 C215.4 64.16, 237.13 37.8, 263.58 7.85 M192.72 89.36 C215.26 65.71, 236.06 40.46, 263.58 7.85 M197.71 89.72 C216.36 67.1, 236.72 44.69, 266.6 10.47 M197.71 89.72 C224.08 59.53, 250.29 29.2, 266.6 10.47 M203.35 89.32 C223.14 67.97, 242.06 48.4, 268.3 14.6 M203.35 89.32 C226.67 63.91, 250.37 37.32, 268.3 14.6 M208.34 89.68 C229 62.71, 251.46 37.69, 269.35 19.49 M208.34 89.68 C223.75 70.11, 239.9 52.3, 269.35 19.49 M213.98 89.29 C226.83 76.8, 235.43 64.89, 269.75 25.14 M213.98 89.29 C229.39 71.75, 244.57 55.35, 269.75 25.14 M218.97 89.65 C229.85 76.98, 241.79 63.13, 269.49 31.53 M218.97 89.65 C235.66 69.75, 253.4 49.72, 269.49 31.53 M224.61 89.25 C234.73 73.05, 250.28 59.91, 269.88 37.18 M224.61 89.25 C240.42 70.5, 255.34 53.1, 269.88 37.18 M229.6 89.61 C238.68 77.17, 248.74 68.37, 269.62 43.57 M229.6 89.61 C240.46 78.39, 251.02 66.14, 269.62 43.57 M234.59 89.97 C247.43 73.8, 257.33 62.71, 270.01 49.22 M234.59 89.97 C248.07 75.53, 259.84 60.49, 270.01 49.22 M240.23 89.58 C245.7 83.16, 255.52 74.91, 269.75 55.62 M240.23 89.58 C246.89 80.42, 254.33 73.07, 269.75 55.62 M245.87 89.18 C254.6 76.74, 264 66.14, 270.15 61.26 M245.87 89.18 C253.01 80.51, 260.45 72.99, 270.15 61.26 M252.17 88.03 C256.41 83.83, 258.53 81.2, 269.23 68.41 M252.17 88.03 C258.94 79.67, 265.78 73.8, 269.23 68.41" stroke="#ffec99" stroke-width="0.5" fill="none"></path><path d="M22.27 0 M22.27 0 C108.46 -2.27, 190.61 0.17, 245.26 0 M22.27 0 C71.47 0.75, 122 0.62, 245.26 0 M245.26 0 C261.83 -0.1, 267.03 6.19, 267.53 22.27 M245.26 0 C260.08 1.83, 268.51 6.71, 267.53 22.27 M267.53 22.27 C268.39 33, 268.12 45.32, 267.53 66.82 M267.53 22.27 C268.26 39.06, 267.61 54.89, 267.53 66.82 M267.53 66.82 C268.08 81.99, 261.26 87.28, 245.26 89.09 M267.53 66.82 C269.54 81, 259.66 88.18, 245.26 89.09 M245.26 89.09 C173.17 88.47, 100.63 89.83, 22.27 89.09 M245.26 89.09 C186.74 91.57, 128.68 91.49, 22.27 89.09 M22.27 89.09 C7.12 89.72, 1.69 83.21, 0 66.82 M22.27 89.09 C5.2 87.61, -2.28 81.91, 0 66.82 M0 66.82 C0.29 58.97, -0.58 46.41, 0 22.27 M0 66.82 C-0.15 56.54, -0.32 46.62, 0 22.27 M0 22.27 C0.17 7.56, 8.98 0.23, 22.27 0 M0 22.27 C-1.98 8.01, 9.44 0.7, 22.27 0" stroke="#000000" stroke-width="1" fill="none"></path></g><g transform="translate(569.5591299971161 1614.782671069569) rotate(0 88.99092864990234 44.04767717633922)"><text x="0" y="0" font-family="Virgil, Segoe UI Emoji" font-size="35.23814174107137px" fill="#1e1e1e" text-anchor="start" style="white-space: pre;" direction="ltr" dominant-baseline="text-before-edge">Repository</text><text x="0" y="44.04767717633921" font-family="Virgil, Segoe UI Emoji" font-size="35.23814174107137px" fill="#1e1e1e" text-anchor="start" style="white-space: pre;" direction="ltr" dominant-baseline="text-before-edge"></text></g><g transform="translate(1589.1110698264015 1465.8252516479079) rotate(0 67.60056289161639 26.656401608293436)"><text x="0" y="0" font-family="Virgil, Segoe UI Emoji" font-size="42.650242573269665px" fill="#1e1e1e" text-anchor="start" style="white-space: pre;" direction="ltr" dominant-baseline="text-before-edge">Nestjs</text></g><g stroke-linecap="round" transform="translate(1557.3220017133672 521.9095014829823) rotate(0 133.76437377929688 44.54351806640625)"><path d="M2.81 9.07 C2.81 9.07, 2.81 9.07, 2.81 9.07 M2.81 9.07 C2.81 9.07, 2.81 9.07, 2.81 9.07 M0.58 17.73 C2.55 16.1, 6.44 13.79, 11.08 5.66 M0.58 17.73 C3.57 13.29, 6.34 10.28, 11.08 5.66 M0.98 23.37 C9.51 14.36, 13.5 9.63, 18.03 3.75 M0.98 23.37 C6.44 15.92, 12.58 9.7, 18.03 3.75 M0.71 29.77 C7.66 23.74, 11.62 13.56, 24.99 1.85 M0.71 29.77 C6.39 23.17, 11.53 16.62, 24.99 1.85 M1.11 35.41 C8.55 27.83, 16.19 17.58, 29.98 2.21 M1.11 35.41 C7.16 29.4, 12.84 22.12, 29.98 2.21 M0.85 41.81 C12.95 28.49, 23.17 15.82, 35.62 1.81 M0.85 41.81 C10.65 30.05, 19.97 18.95, 35.62 1.81 M0.59 48.21 C9.1 40.43, 16.54 27.12, 40.61 2.17 M0.59 48.21 C14.48 32.3, 27.31 16.13, 40.61 2.17 M0.98 53.85 C16.46 35.47, 31.76 18.59, 46.25 1.78 M0.98 53.85 C13.97 38.11, 26.28 22.46, 46.25 1.78 M0.72 60.25 C20.62 38.99, 37.63 18.71, 51.24 2.14 M0.72 60.25 C17.53 42.04, 33.38 22.36, 51.24 2.14 M1.11 65.89 C17.72 46.36, 39.37 25.67, 56.22 2.5 M1.11 65.89 C16.64 46.12, 33.52 28.72, 56.22 2.5 M0.85 72.29 C23.67 47.1, 47.36 19.67, 61.87 2.1 M0.85 72.29 C23.64 45.31, 46.69 19.48, 61.87 2.1 M2.56 76.43 C17.15 59.46, 31.4 44.19, 66.85 2.46 M2.56 76.43 C17.73 60.66, 32.99 42.3, 66.85 2.46 M4.27 80.56 C19.25 60.23, 35.82 41.8, 72.5 2.07 M4.27 80.56 C21.95 59.81, 41.11 38.36, 72.5 2.07 M6.63 83.94 C23.25 65.08, 40 47.71, 77.48 2.43 M6.63 83.94 C22.35 65.63, 38.07 47.39, 77.48 2.43 M9.65 86.56 C29.56 63.04, 49.77 38.99, 83.13 2.03 M9.65 86.56 C25.45 68.05, 41.27 49.45, 83.13 2.03 M13.32 88.43 C42.42 55.73, 71.28 20.94, 88.11 2.4 M13.32 88.43 C35.51 60.09, 60.44 33.54, 88.11 2.4 M18.31 88.79 C45.27 60.88, 67.67 30.7, 93.76 2 M18.31 88.79 C46.57 56.64, 75.37 23.31, 93.76 2 M22.64 89.91 C42.08 68.56, 62.08 45.13, 98.74 2.36 M22.64 89.91 C45.57 63.03, 69.13 36.69, 98.74 2.36 M28.28 89.51 C57.46 57.47, 84.14 22.33, 104.39 1.97 M28.28 89.51 C57.29 56.68, 85.78 24.6, 104.39 1.97 M33.27 89.87 C55.86 66.05, 76.76 40.17, 109.37 2.33 M33.27 89.87 C57.93 62.21, 82.85 33.61, 109.37 2.33 M38.91 89.48 C62.46 59.19, 88.14 29.18, 115.02 1.93 M38.91 89.48 C65.25 60.73, 89.17 30.76, 115.02 1.93 M43.9 89.84 C72.83 58.72, 103.14 23.28, 120 2.29 M43.9 89.84 C63.05 66.08, 84.7 42.7, 120 2.29 M49.54 89.44 C68.02 69.84, 81.24 49.78, 125.65 1.9 M49.54 89.44 C67.34 66.92, 86.68 45.34, 125.65 1.9 M54.53 89.8 C76.17 66.02, 96.63 37.09, 130.63 2.26 M54.53 89.8 C81.31 58.91, 108.27 28.26, 130.63 2.26 M60.17 89.41 C77.83 68.41, 93.41 47.38, 136.28 1.86 M60.17 89.41 C81.92 63.4, 104.19 38.96, 136.28 1.86 M65.16 89.77 C90.73 61.79, 117.69 29.25, 141.26 2.22 M65.16 89.77 C92.96 56.66, 122.73 25.26, 141.26 2.22 M70.8 89.37 C87.88 69.5, 105.57 49.89, 146.91 1.83 M70.8 89.37 C87.71 70.92, 103.46 51.41, 146.91 1.83 M75.79 89.73 C94 70.83, 110.96 49.27, 151.89 2.19 M75.79 89.73 C93.77 68.62, 112.53 49.09, 151.89 2.19 M81.43 89.34 C102.66 65.91, 123.79 40.68, 157.54 1.79 M81.43 89.34 C110.64 56.12, 139.44 22.12, 157.54 1.79 M86.42 89.7 C103.88 69.25, 124.84 48.63, 162.52 2.15 M86.42 89.7 C104.52 69.83, 121.7 49.86, 162.52 2.15 M92.06 89.31 C113.03 63.24, 138.16 39.69, 167.51 2.51 M92.06 89.31 C118.07 59.57, 143.4 30.27, 167.51 2.51 M97.05 89.67 C116.37 69.1, 132.63 48.18, 173.15 2.12 M97.05 89.67 C122.84 60.61, 148.45 33.06, 173.15 2.12 M102.69 89.27 C133.09 55.21, 163.21 19.64, 178.14 2.48 M102.69 89.27 C119.86 69.91, 137.8 50.04, 178.14 2.48 M107.68 89.63 C126.72 70.89, 143.76 50.82, 183.78 2.08 M107.68 89.63 C131.7 60.54, 157.21 30.91, 183.78 2.08 M112.67 89.99 C139.99 55.58, 171.02 22.47, 188.77 2.44 M112.67 89.99 C128.51 70.44, 144.97 52.62, 188.77 2.44 M118.31 89.6 C138.7 65.92, 161.42 40.7, 194.41 2.05 M118.31 89.6 C142.32 62.49, 165.68 34.55, 194.41 2.05 M123.3 89.96 C138.31 72.35, 152.99 54.57, 199.4 2.41 M123.3 89.96 C152.52 56.23, 183.59 21.29, 199.4 2.41 M128.94 89.56 C152.62 59.45, 179 31.06, 205.04 2.02 M128.94 89.56 C154.97 59.11, 182.75 28.81, 205.04 2.02 M133.93 89.92 C160.21 62.47, 184.44 33.26, 210.03 2.38 M133.93 89.92 C159.47 57.68, 188.06 28.28, 210.03 2.38 M139.57 89.53 C155.81 69.64, 170.97 51.96, 215.67 1.98 M139.57 89.53 C170.02 56.29, 199.91 20.43, 215.67 1.98 M144.56 89.89 C172.39 56.14, 203.56 26.26, 220.66 2.34 M144.56 89.89 C172.37 56.69, 201.28 23.74, 220.66 2.34 M150.2 89.49 C167.59 69.03, 187.06 46.44, 226.3 1.95 M150.2 89.49 C166.65 69.24, 184.41 50.87, 226.3 1.95 M155.19 89.85 C173.79 67.65, 197.04 45.87, 231.29 2.31 M155.19 89.85 C170.87 69.1, 189.1 49.84, 231.29 2.31 M160.83 89.46 C191.56 56.56, 220.14 25.4, 236.93 1.91 M160.83 89.46 C183.48 64.9, 206.37 37.98, 236.93 1.91 M165.82 89.82 C187.79 65.46, 207.94 42.35, 241.92 2.27 M165.82 89.82 C195.32 57.36, 223.25 23.57, 241.92 2.27 M171.46 89.42 C194.43 62.07, 220.58 31.27, 247.56 1.88 M171.46 89.42 C190.84 67.51, 210.82 44.82, 247.56 1.88 M176.45 89.78 C206.39 57.94, 234.29 27.16, 251.9 2.99 M176.45 89.78 C206.27 57.14, 233.29 22.56, 251.9 2.99 M182.09 89.39 C197.07 74.13, 212.37 56.92, 256.88 3.35 M182.09 89.39 C204.15 66.97, 223.78 42.7, 256.88 3.35 M187.08 89.75 C210.53 65.2, 233.27 35.86, 259.9 5.98 M187.08 89.75 C209.94 62.32, 234.38 34.42, 259.9 5.98 M192.72 89.36 C212.33 67.43, 228.09 47.29, 263.58 7.85 M192.72 89.36 C210.73 66.98, 230.06 46.11, 263.58 7.85 M197.71 89.72 C219.26 63.58, 243.94 38.91, 266.6 10.47 M197.71 89.72 C220.31 62.82, 243.72 36.03, 266.6 10.47 M203.35 89.32 C226.54 61.47, 248.29 37.85, 268.3 14.6 M203.35 89.32 C222.81 67.75, 241.35 45.02, 268.3 14.6 M208.34 89.68 C222.54 73.16, 232.31 59.15, 269.35 19.49 M208.34 89.68 C225.33 69.54, 243.53 49.02, 269.35 19.49 M213.98 89.29 C233.94 69.05, 249.49 45.86, 269.75 25.14 M213.98 89.29 C226.01 75.5, 235.93 62.15, 269.75 25.14 M218.97 89.65 C232.26 75.52, 245.66 60.71, 269.49 31.53 M218.97 89.65 C234.73 70.57, 250.09 53.35, 269.49 31.53 M224.61 89.25 C232.29 77.72, 241.69 66.46, 269.88 37.18 M224.61 89.25 C239.26 74.3, 251.87 59.1, 269.88 37.18 M229.6 89.61 C242.88 71.75, 256.46 56.83, 269.62 43.57 M229.6 89.61 C239.81 78.72, 251.03 66.09, 269.62 43.57 M234.59 89.97 C246.92 74.32, 259.88 59.07, 270.01 49.22 M234.59 89.97 C245.13 78.48, 256.69 65.17, 270.01 49.22 M240.23 89.58 C246.14 82.64, 250.7 76.12, 269.75 55.62 M240.23 89.58 C247.88 81.43, 254.43 72.67, 269.75 55.62 M245.87 89.18 C255.4 79.85, 266.69 67.29, 270.15 61.26 M245.87 89.18 C253.34 81.87, 258.96 74.61, 270.15 61.26 M252.17 88.03 C258.71 80.14, 262.97 74.88, 269.23 68.41 M252.17 88.03 C257.83 82.18, 264.16 75.41, 269.23 68.41" stroke="#ffec99" stroke-width="0.5" fill="none"></path><path d="M22.27 0 M22.27 0 C74.41 0.76, 125.72 2.31, 245.26 0 M22.27 0 C110.7 -0.17, 201.18 -0.42, 245.26 0 M245.26 0 C259 1.63, 267.55 5.94, 267.53 22.27 M245.26 0 C259.25 1.53, 268.6 5.29, 267.53 22.27 M267.53 22.27 C266.4 35.16, 268.29 49.99, 267.53 66.82 M267.53 22.27 C268.59 32.19, 266.66 44.44, 267.53 66.82 M267.53 66.82 C268.91 79.69, 262.1 90.39, 245.26 89.09 M267.53 66.82 C265.66 81.79, 258.18 90.02, 245.26 89.09 M245.26 89.09 C157.66 88.86, 72.84 91, 22.27 89.09 M245.26 89.09 C173.79 88.4, 101.07 88.61, 22.27 89.09 M22.27 89.09 C7.01 87.43, -0.48 82.63, 0 66.82 M22.27 89.09 C8.15 90.87, -1.72 83.37, 0 66.82 M0 66.82 C0.92 54.98, -0.9 41.88, 0 22.27 M0 66.82 C0.08 51.02, 0.67 37.66, 0 22.27 M0 22.27 C1.09 8.81, 7.96 1.48, 22.27 0 M0 22.27 C-0.3 7.91, 7.85 1.44, 22.27 0" stroke="#000000" stroke-width="1" fill="none"></path></g><g transform="translate(1574.5121396065283 546.1881845467642) rotate(0 119.28147577050527 39.42410131939914)"><text x="0" y="0" font-family="Virgil, Segoe UI Emoji" font-size="31.53928105551937px" fill="#1e1e1e" text-anchor="start" style="white-space: pre;" direction="ltr" dominant-baseline="text-before-edge">Elastac search</text><text x="0" y="39.42410131939921" font-family="Virgil, Segoe UI Emoji" font-size="31.53928105551937px" fill="#1e1e1e" text-anchor="start" style="white-space: pre;" direction="ltr" dominant-baseline="text-before-edge"></text></g><g stroke-linecap="round" transform="translate(337.12342953733514 541.7772728757591) rotate(0 133.76437377929688 44.54351806640625)"><path d="M2.81 9.07 C2.81 9.07, 2.81 9.07, 2.81 9.07 M2.81 9.07 C2.81 9.07, 2.81 9.07, 2.81 9.07 M0.58 17.73 C4.69 12.15, 6.32 10.51, 11.08 5.66 M0.58 17.73 C4.7 13.75, 7.65 9.16, 11.08 5.66 M0.98 23.37 C3.65 20.39, 10.54 15.51, 18.03 3.75 M0.98 23.37 C4.58 17.74, 8.85 14.03, 18.03 3.75 M0.71 29.77 C9.45 17.33, 18.84 6.72, 24.99 1.85 M0.71 29.77 C7.85 21.1, 15.3 13.58, 24.99 1.85 M1.11 35.41 C7.88 28.35, 12.42 22.93, 29.98 2.21 M1.11 35.41 C12.5 21.87, 23.92 10.73, 29.98 2.21 M0.85 41.81 C15.92 25.41, 25.97 13.02, 35.62 1.81 M0.85 41.81 C7.46 33.79, 15.94 24.68, 35.62 1.81 M0.59 48.21 C14.83 30.52, 33.1 13.62, 40.61 2.17 M0.59 48.21 C11.03 36.6, 21.64 24.09, 40.61 2.17 M0.98 53.85 C11.31 42.09, 24.04 27.36, 46.25 1.78 M0.98 53.85 C11.17 41.66, 21.21 31.06, 46.25 1.78 M0.72 60.25 C13.77 43.33, 30.12 27.27, 51.24 2.14 M0.72 60.25 C18.22 40.77, 36.15 20.25, 51.24 2.14 M1.11 65.89 C21.82 43.97, 43.34 16.65, 56.22 2.5 M1.11 65.89 C13.83 50.9, 28.42 36.07, 56.22 2.5 M0.85 72.29 C22.12 48.64, 47.15 21.14, 61.87 2.1 M0.85 72.29 C15.64 55.84, 31.12 38.88, 61.87 2.1 M2.56 76.43 C16.74 59.78, 30.03 45.41, 66.85 2.46 M2.56 76.43 C18.21 59.22, 33.67 39.99, 66.85 2.46 M4.27 80.56 C18.68 60.86, 33.82 43.44, 72.5 2.07 M4.27 80.56 C29.57 50.51, 55.55 21.89, 72.5 2.07 M6.63 83.94 C28.36 58.85, 48.22 35.48, 77.48 2.43 M6.63 83.94 C26.87 59.03, 48.24 33.63, 77.48 2.43 M9.65 86.56 C35.68 54.88, 65.9 20.89, 83.13 2.03 M9.65 86.56 C37.25 56.57, 62.51 24.65, 83.13 2.03 M13.32 88.43 C31.29 64.9, 51.15 44.07, 88.11 2.4 M13.32 88.43 C32.14 67.57, 51.82 44.1, 88.11 2.4 M18.31 88.79 C39.83 68.65, 55.92 44.51, 93.76 2 M18.31 88.79 C35.16 70.46, 51.86 51.79, 93.76 2 M22.64 89.91 C52.38 57.57, 77.62 24.63, 98.74 2.36 M22.64 89.91 C42.31 66.46, 61.59 44.23, 98.74 2.36 M28.28 89.51 C45.98 70.25, 66.22 47.15, 104.39 1.97 M28.28 89.51 C53.75 60.28, 77.51 31.14, 104.39 1.97 M33.27 89.87 C51.81 67.68, 73.39 47.64, 109.37 2.33 M33.27 89.87 C50.98 69.34, 68.3 48.69, 109.37 2.33 M38.91 89.48 C55.97 66.51, 78.78 45.53, 115.02 1.93 M38.91 89.48 C65.75 60.2, 90.6 30.26, 115.02 1.93 M43.9 89.84 C70.55 62.11, 94.9 32.23, 120 2.29 M43.9 89.84 C62.27 68.35, 80.81 48.03, 120 2.29 M49.54 89.44 C75.38 62.85, 99.63 32.64, 125.65 1.9 M49.54 89.44 C78.44 55.32, 108.48 19.84, 125.65 1.9 M54.53 89.8 C81.87 58.63, 110.57 28.48, 130.63 2.26 M54.53 89.8 C77.87 63.87, 101.31 37.38, 130.63 2.26 M60.17 89.41 C90.27 52.71, 121 21.23, 136.28 1.86 M60.17 89.41 C85.78 59.17, 110.5 31.69, 136.28 1.86 M65.16 89.77 C91.54 58.79, 117.81 27.13, 141.26 2.22 M65.16 89.77 C92.51 60.51, 119.61 28.75, 141.26 2.22 M70.8 89.37 C83.29 73.22, 101.89 51.98, 146.91 1.83 M70.8 89.37 C95.66 61.33, 118.77 34.98, 146.91 1.83 M75.79 89.73 C91.39 73.11, 105.71 55.08, 151.89 2.19 M75.79 89.73 C98.52 62.63, 121.18 37.83, 151.89 2.19 M81.43 89.34 C107.48 60.63, 129.67 32.72, 157.54 1.79 M81.43 89.34 C106.36 61.4, 130.48 31.88, 157.54 1.79 M86.42 89.7 C110.17 65.49, 132.01 39.96, 162.52 2.15 M86.42 89.7 C115.19 57.42, 143.52 24.75, 162.52 2.15 M92.06 89.31 C119.8 59.12, 148.74 25.77, 167.51 2.51 M92.06 89.31 C119.71 59.71, 144.49 27.91, 167.51 2.51 M97.05 89.67 C119.28 64.72, 141.07 42, 173.15 2.12 M97.05 89.67 C125.7 55.8, 155.66 20.32, 173.15 2.12 M102.69 89.27 C129.39 55.7, 159.9 26.49, 178.14 2.48 M102.69 89.27 C131.02 54.92, 159.76 23.62, 178.14 2.48 M107.68 89.63 C127.57 66.49, 150.41 39.67, 183.78 2.08 M107.68 89.63 C126.78 67.5, 145.95 45.31, 183.78 2.08 M112.67 89.99 C142.79 56.83, 170.33 25.02, 188.77 2.44 M112.67 89.99 C140.1 60.37, 165.71 29.04, 188.77 2.44 M118.31 89.6 C144.93 60.4, 172.22 28.57, 194.41 2.05 M118.31 89.6 C138.14 64.99, 158.31 42.12, 194.41 2.05 M123.3 89.96 C147.56 63.91, 169.58 34.5, 199.4 2.41 M123.3 89.96 C142.74 68.84, 161.11 45.76, 199.4 2.41 M128.94 89.56 C154.04 57.94, 181.54 26.04, 205.04 2.02 M128.94 89.56 C147.12 69.01, 164.39 49.13, 205.04 2.02 M133.93 89.92 C155.74 65.93, 173.1 44.11, 210.03 2.38 M133.93 89.92 C151.05 70.48, 167.36 50.69, 210.03 2.38 M139.57 89.53 C161.84 64.52, 182.54 41.01, 215.67 1.98 M139.57 89.53 C166.07 58.6, 193.39 27.88, 215.67 1.98 M144.56 89.89 C159.87 72.54, 178.4 51.52, 220.66 2.34 M144.56 89.89 C163.59 68.02, 180.82 48.62, 220.66 2.34 M150.2 89.49 C180.26 57.38, 208.84 23.14, 226.3 1.95 M150.2 89.49 C172.94 62.58, 196.27 37.38, 226.3 1.95 M155.19 89.85 C177.7 61.52, 204.93 35.78, 231.29 2.31 M155.19 89.85 C174.03 68.72, 191.26 49.17, 231.29 2.31 M160.83 89.46 C191.82 55.26, 219.88 21.76, 236.93 1.91 M160.83 89.46 C189.93 57.5, 218 23.75, 236.93 1.91 M165.82 89.82 C182.35 68.33, 198.87 52.16, 241.92 2.27 M165.82 89.82 C193.03 57.35, 222.65 23.49, 241.92 2.27 M171.46 89.42 C193.78 60.71, 218.3 34.9, 247.56 1.88 M171.46 89.42 C197.36 57.7, 223.75 26.62, 247.56 1.88 M176.45 89.78 C200.36 60.83, 225.96 29.35, 251.9 2.99 M176.45 89.78 C204.39 57, 233.72 24.64, 251.9 2.99 M182.09 89.39 C203.81 65.14, 223.66 43.49, 256.88 3.35 M182.09 89.39 C197.78 71.17, 214.06 53.92, 256.88 3.35 M187.08 89.75 C211.87 59.34, 237.42 28.89, 259.9 5.98 M187.08 89.75 C202.01 71.9, 216.79 56.48, 259.9 5.98 M192.72 89.36 C207.59 70.01, 221.93 54.08, 263.58 7.85 M192.72 89.36 C207.95 70.62, 224.55 54.07, 263.58 7.85 M197.71 89.72 C222.77 62.07, 246.84 33.11, 266.6 10.47 M197.71 89.72 C222.01 61.93, 247.03 31.89, 266.6 10.47 M203.35 89.32 C214.69 72.6, 231.75 58.71, 268.3 14.6 M203.35 89.32 C219.75 71.41, 235.88 52.81, 268.3 14.6 M208.34 89.68 C225.94 66.53, 248.34 47.57, 269.35 19.49 M208.34 89.68 C232.42 61.79, 256.68 34.05, 269.35 19.49 M213.98 89.29 C234.71 65.68, 253.56 39.38, 269.75 25.14 M213.98 89.29 C227.3 73.57, 242.71 55.73, 269.75 25.14 M218.97 89.65 C237.47 68.85, 254.79 50.99, 269.49 31.53 M218.97 89.65 C229.68 77.12, 240.6 64.24, 269.49 31.53 M224.61 89.25 C239.13 72.75, 254.78 51.59, 269.88 37.18 M224.61 89.25 C235.37 78.87, 242.82 67.34, 269.88 37.18 M229.6 89.61 C239.99 79.42, 250.65 66.01, 269.62 43.57 M229.6 89.61 C243.72 74.74, 257.58 57.53, 269.62 43.57 M234.59 89.97 C249.24 74.64, 260.83 58.37, 270.01 49.22 M234.59 89.97 C247.08 76.47, 259.16 60.92, 270.01 49.22 M240.23 89.58 C246.42 81.32, 255.68 72.24, 269.75 55.62 M240.23 89.58 C248.95 80.43, 256.6 70.6, 269.75 55.62 M245.87 89.18 C254.59 81.13, 260.44 72.3, 270.15 61.26 M245.87 89.18 C254.08 80.77, 261.16 70.99, 270.15 61.26 M252.17 88.03 C255.38 84.43, 259.58 78.08, 269.23 68.41 M252.17 88.03 C258.98 80.09, 265.1 73.37, 269.23 68.41" stroke="#ffec99" stroke-width="0.5" fill="none"></path><path d="M22.27 0 M22.27 0 C95.41 -3.05, 167.42 0.13, 245.26 0 M22.27 0 C87.79 0.83, 152.63 0.52, 245.26 0 M245.26 0 C258.31 -1.55, 265.68 6.17, 267.53 22.27 M245.26 0 C262.24 -1.02, 267.88 7.44, 267.53 22.27 M267.53 22.27 C269.3 31.91, 268.55 44.33, 267.53 66.82 M267.53 22.27 C266.97 34.45, 266.49 48.79, 267.53 66.82 M267.53 66.82 C269.35 81.16, 260.13 88.53, 245.26 89.09 M267.53 66.82 C266.4 83.2, 261.14 87.19, 245.26 89.09 M245.26 89.09 C191.78 90.69, 140.49 89, 22.27 89.09 M245.26 89.09 C174.56 88.84, 104.6 89.52, 22.27 89.09 M22.27 89.09 C7.35 87.71, 0.84 82.75, 0 66.82 M22.27 89.09 C6.53 87.22, 0.65 82.85, 0 66.82 M0 66.82 C0.06 53.74, 1.17 40.37, 0 22.27 M0 66.82 C-0.87 53.49, 0.65 42.15, 0 22.27 M0 22.27 C0.15 8.18, 6.64 1.19, 22.27 0 M0 22.27 C1.69 9.58, 5.25 1.6, 22.27 0" stroke="#000000" stroke-width="1" fill="none"></path></g><g transform="translate(428.9830704762305 562.0350766564511) rotate(0 45.56999206542969 22.02383858816961)"><text x="0" y="0" font-family="Virgil, Segoe UI Emoji" font-size="35.23814174107137px" fill="#1e1e1e" text-anchor="start" style="white-space: pre;" direction="ltr" dominant-baseline="text-before-edge">Mysql</text></g><g stroke-linecap="round" transform="translate(932.5422481145481 195.7032184523855) rotate(0 133.76437377929688 44.54351806640625)"><path d="M2.81 9.07 C2.81 9.07, 2.81 9.07, 2.81 9.07 M2.81 9.07 C2.81 9.07, 2.81 9.07, 2.81 9.07 M0.58 17.73 C5.09 14.12, 9.59 7.88, 11.08 5.66 M0.58 17.73 C3.69 13.37, 8.32 10.29, 11.08 5.66 M0.98 23.37 C5.67 17.95, 10.2 13.59, 18.03 3.75 M0.98 23.37 C5.83 18.92, 10.14 13.01, 18.03 3.75 M0.71 29.77 C3.75 23.06, 10.41 17.51, 24.99 1.85 M0.71 29.77 C6.59 22.16, 12.79 14.9, 24.99 1.85 M1.11 35.41 C10.87 26.29, 21.66 11.99, 29.98 2.21 M1.11 35.41 C7.88 26.93, 14.79 20.83, 29.98 2.21 M0.85 41.81 C15.06 28.46, 27.25 11.14, 35.62 1.81 M0.85 41.81 C12.39 29.11, 24.02 14.14, 35.62 1.81 M0.59 48.21 C10.17 35.97, 22.64 22.76, 40.61 2.17 M0.59 48.21 C9.53 38.55, 18.42 28.04, 40.61 2.17 M0.98 53.85 C19.09 33.23, 35.21 14.53, 46.25 1.78 M0.98 53.85 C15.42 38.69, 27.84 24.26, 46.25 1.78 M0.72 60.25 C20.14 36.67, 41.35 15.25, 51.24 2.14 M0.72 60.25 C18.04 40.02, 35.57 18.08, 51.24 2.14 M1.11 65.89 C22.25 44.94, 38.66 22.2, 56.22 2.5 M1.11 65.89 C13.61 53.13, 23.94 39.19, 56.22 2.5 M0.85 72.29 C15.02 58.22, 25.5 46, 61.87 2.1 M0.85 72.29 C13.62 55.53, 27.97 40.41, 61.87 2.1 M2.56 76.43 C23.56 54.22, 42.08 27.56, 66.85 2.46 M2.56 76.43 C20.33 55.75, 36.18 37.8, 66.85 2.46 M4.27 80.56 C18.15 61.06, 32.39 46.34, 72.5 2.07 M4.27 80.56 C29.41 51.94, 53.29 24.76, 72.5 2.07 M6.63 83.94 C30.52 56.27, 50.87 32.61, 77.48 2.43 M6.63 83.94 C22.06 65.62, 40.6 45.04, 77.48 2.43 M9.65 86.56 C27.38 65.27, 44.03 46.49, 83.13 2.03 M9.65 86.56 C30.57 61.01, 53.48 35.74, 83.13 2.03 M13.32 88.43 C42.03 56.76, 71.8 23.3, 88.11 2.4 M13.32 88.43 C30.32 68.47, 47.82 50.53, 88.11 2.4 M18.31 88.79 C34 70.97, 50.68 52.76, 93.76 2 M18.31 88.79 C47.77 55.69, 76.01 21.96, 93.76 2 M22.64 89.91 C45 66.12, 65.95 39.2, 98.74 2.36 M22.64 89.91 C43.79 64.56, 65.26 38.53, 98.74 2.36 M28.28 89.51 C44.57 69.02, 63.7 51.35, 104.39 1.97 M28.28 89.51 C55.6 57.74, 84.55 26.32, 104.39 1.97 M33.27 89.87 C48.15 68.83, 67.77 49.47, 109.37 2.33 M33.27 89.87 C63.58 54.42, 93.58 19.96, 109.37 2.33 M38.91 89.48 C57.52 68.12, 79.6 41.25, 115.02 1.93 M38.91 89.48 C65.47 60.71, 91.21 30.11, 115.02 1.93 M43.9 89.84 C68.98 62.33, 94.49 31.01, 120 2.29 M43.9 89.84 C68.12 62.39, 93.54 35.12, 120 2.29 M49.54 89.44 C69.01 64.66, 90.49 40.69, 125.65 1.9 M49.54 89.44 C67.85 66.47, 88.11 43.69, 125.65 1.9 M54.53 89.8 C85.65 55.07, 114.27 21.71, 130.63 2.26 M54.53 89.8 C79.07 63.45, 101.07 37.34, 130.63 2.26 M60.17 89.41 C85.5 62.12, 111.23 32.46, 136.28 1.86 M60.17 89.41 C76.39 71.42, 93.88 51.06, 136.28 1.86 M65.16 89.77 C86.31 66.43, 106.18 44.06, 141.26 2.22 M65.16 89.77 C81.46 71.81, 99.16 52.21, 141.26 2.22 M70.8 89.37 C100.94 55.09, 130.07 21.96, 146.91 1.83 M70.8 89.37 C97.55 57.48, 125.88 27.24, 146.91 1.83 M75.79 89.73 C98.84 62.61, 120.68 38.73, 151.89 2.19 M75.79 89.73 C91.58 71.47, 107.03 54.67, 151.89 2.19 M81.43 89.34 C97.11 71.33, 117.31 48.07, 157.54 1.79 M81.43 89.34 C109.39 57.61, 136.99 25.64, 157.54 1.79 M86.42 89.7 C108.95 61.28, 133.3 32.04, 162.52 2.15 M86.42 89.7 C100.56 72.74, 117.68 53.46, 162.52 2.15 M92.06 89.31 C109.8 68.41, 127.83 45.14, 167.51 2.51 M92.06 89.31 C120 58.07, 148.24 25.71, 167.51 2.51 M97.05 89.67 C112.86 69.97, 131.32 50.57, 173.15 2.12 M97.05 89.67 C118.82 66.64, 139.13 43.13, 173.15 2.12 M102.69 89.27 C123.62 67.54, 145.58 41.96, 178.14 2.48 M102.69 89.27 C119.86 67.71, 139 48.4, 178.14 2.48 M107.68 89.63 C125.03 69.6, 140.36 50.44, 183.78 2.08 M107.68 89.63 C124.86 71.01, 140.42 50.5, 183.78 2.08 M112.67 89.99 C143.54 56.62, 170.88 26.79, 188.77 2.44 M112.67 89.99 C137.44 63.1, 160.18 37.8, 188.77 2.44 M118.31 89.6 C145.96 62.01, 170.12 32.6, 194.41 2.05 M118.31 89.6 C132.95 70.94, 149.3 53.27, 194.41 2.05 M123.3 89.96 C141.35 70.9, 157.51 49.55, 199.4 2.41 M123.3 89.96 C139.12 70.05, 157.34 52.07, 199.4 2.41 M128.94 89.56 C156.73 57.45, 181.28 27.04, 205.04 2.02 M128.94 89.56 C154.15 61.31, 178.52 30.88, 205.04 2.02 M133.93 89.92 C165.37 55.96, 194.23 21.81, 210.03 2.38 M133.93 89.92 C158.17 63.19, 180.87 34.71, 210.03 2.38 M139.57 89.53 C158.38 65.56, 179.01 44.07, 215.67 1.98 M139.57 89.53 C159.16 67.78, 176.5 47.16, 215.67 1.98 M144.56 89.89 C174.79 58.91, 201.87 23.22, 220.66 2.34 M144.56 89.89 C161.49 69.11, 179.35 50.21, 220.66 2.34 M150.2 89.49 C165.22 71.86, 178.59 55.51, 226.3 1.95 M150.2 89.49 C174.62 60.74, 200.65 30.61, 226.3 1.95 M155.19 89.85 C183.48 53.03, 214.67 21.1, 231.29 2.31 M155.19 89.85 C175.94 66.96, 196.92 42.6, 231.29 2.31 M160.83 89.46 C186.6 61.25, 211.57 30.98, 236.93 1.91 M160.83 89.46 C186.82 60.4, 210.9 32.73, 236.93 1.91 M165.82 89.82 C181.41 70.33, 201.95 51.28, 241.92 2.27 M165.82 89.82 C189.53 64.35, 210.75 37.7, 241.92 2.27 M171.46 89.42 C196.67 62.09, 221.58 33.69, 247.56 1.88 M171.46 89.42 C197.56 59.73, 223.27 30.63, 247.56 1.88 M176.45 89.78 C202.74 58.58, 227.74 31.11, 251.9 2.99 M176.45 89.78 C205.99 56.24, 234.7 22.96, 251.9 2.99 M182.09 89.39 C205.92 63.56, 227.84 35.58, 256.88 3.35 M182.09 89.39 C208.21 58.5, 235.44 27.47, 256.88 3.35 M187.08 89.75 C214.87 54.77, 245.53 24.45, 259.9 5.98 M187.08 89.75 C213.47 57.9, 241.87 26.22, 259.9 5.98 M192.72 89.36 C216.68 61.93, 238.92 34.91, 263.58 7.85 M192.72 89.36 C218.66 57.46, 245.55 25.47, 263.58 7.85 M197.71 89.72 C219.06 66.54, 240.58 44.33, 266.6 10.47 M197.71 89.72 C222.25 61.6, 245.54 33.38, 266.6 10.47 M203.35 89.32 C220.48 69.91, 240.19 48.6, 268.3 14.6 M203.35 89.32 C224.08 65.13, 245.33 41.26, 268.3 14.6 M208.34 89.68 C228.47 64.52, 250.29 38.82, 269.35 19.49 M208.34 89.68 C230.94 63.82, 252.21 40.5, 269.35 19.49 M213.98 89.29 C232.33 68.22, 249.1 45.67, 269.75 25.14 M213.98 89.29 C228.76 73.89, 241.92 56.98, 269.75 25.14 M218.97 89.65 C236.72 70.51, 256.38 48.57, 269.49 31.53 M218.97 89.65 C232.21 75.18, 243.51 59.8, 269.49 31.53 M224.61 89.25 C239.16 69.14, 254.39 54.88, 269.88 37.18 M224.61 89.25 C240.89 70.65, 255.64 53.6, 269.88 37.18 M229.6 89.61 C239.25 78.99, 249.08 65.85, 269.62 43.57 M229.6 89.61 C240.56 77.87, 248.85 66.22, 269.62 43.57 M234.59 89.97 C244.13 76.94, 255.1 65.29, 270.01 49.22 M234.59 89.97 C241.5 81.99, 248.9 72.9, 270.01 49.22 M240.23 89.58 C249.89 78.64, 261.04 67.73, 269.75 55.62 M240.23 89.58 C247.74 82.49, 252.77 74.33, 269.75 55.62 M245.87 89.18 C253.67 79.23, 262.39 71.52, 270.15 61.26 M245.87 89.18 C253.56 80.6, 260.98 72.04, 270.15 61.26 M252.17 88.03 C257.05 81.07, 263.56 73, 269.23 68.41 M252.17 88.03 C258.22 79.77, 266.5 73.1, 269.23 68.41" stroke="#ffec99" stroke-width="0.5" fill="none"></path><path d="M22.27 0 M22.27 0 C80.34 0.56, 137.95 -1.69, 245.26 0 M22.27 0 C88.64 0.45, 154.15 0.43, 245.26 0 M245.26 0 C259.35 1.31, 267.44 7.24, 267.53 22.27 M245.26 0 C258.37 -2.01, 267.68 9.72, 267.53 22.27 M267.53 22.27 C266.89 32.77, 267.97 45.6, 267.53 66.82 M267.53 22.27 C267.74 35.38, 266.96 50.86, 267.53 66.82 M267.53 66.82 C266.18 81.25, 258.6 90.65, 245.26 89.09 M267.53 66.82 C266.59 80.7, 260.79 90.03, 245.26 89.09 M245.26 89.09 C172.18 87, 100.48 87.2, 22.27 89.09 M245.26 89.09 C158.84 91.71, 72.45 91.33, 22.27 89.09 M22.27 89.09 C8.12 90.04, 0.32 81.36, 0 66.82 M22.27 89.09 C6.53 87.8, 0.34 80.13, 0 66.82 M0 66.82 C-0.67 55.5, 0.48 44.63, 0 22.27 M0 66.82 C0.31 52.54, -0.55 37.09, 0 22.27 M0 22.27 C-0.43 9.4, 8.59 -1.23, 22.27 0 M0 22.27 C1.59 6.8, 7.97 -1.55, 22.27 0" stroke="#000000" stroke-width="1" fill="none"></path></g><g transform="translate(1020.8215564175084 215.96102223307707) rotate(0 55.17015838623047 22.02383858816961)"><text x="0" y="0" font-family="Virgil, Segoe UI Emoji" font-size="35.23814174107137px" fill="#1e1e1e" text-anchor="start" style="white-space: pre;" direction="ltr" dominant-baseline="text-before-edge">Logger</text></g><g stroke-linecap="round" transform="translate(208.71826070764428 1019.7764650339277) rotate(0 133.76437377929688 44.54351806640625)"><path d="M2.81 9.07 C2.81 9.07, 2.81 9.07, 2.81 9.07 M2.81 9.07 C2.81 9.07, 2.81 9.07, 2.81 9.07 M0.58 17.73 C6.2 13.28, 9.89 8.74, 11.08 5.66 M0.58 17.73 C3.36 13.45, 6.71 10.39, 11.08 5.66 M0.98 23.37 C5.47 15.76, 11.39 10.65, 18.03 3.75 M0.98 23.37 C4.61 18.75, 7.54 14.3, 18.03 3.75 M0.71 29.77 C7.45 20.77, 17.45 9.21, 24.99 1.85 M0.71 29.77 C6.28 23.64, 12.83 15.89, 24.99 1.85 M1.11 35.41 C9.71 23.17, 17.63 15.46, 29.98 2.21 M1.11 35.41 C11.59 22.98, 21.67 11.98, 29.98 2.21 M0.85 41.81 C12 29.04, 20.62 16.64, 35.62 1.81 M0.85 41.81 C9.27 33.16, 15.12 25.76, 35.62 1.81 M0.59 48.21 C18.39 31.56, 31.59 14.05, 40.61 2.17 M0.59 48.21 C10.11 35.84, 20.49 25.05, 40.61 2.17 M0.98 53.85 C16.26 36.81, 29.78 19.78, 46.25 1.78 M0.98 53.85 C14.51 36.36, 30.71 20.12, 46.25 1.78 M0.72 60.25 C19.7 36.8, 40.44 16.68, 51.24 2.14 M0.72 60.25 C21.38 38.06, 40.37 14.26, 51.24 2.14 M1.11 65.89 C22.24 42.79, 42.98 18.11, 56.22 2.5 M1.11 65.89 C19.98 45.19, 38.55 25.01, 56.22 2.5 M0.85 72.29 C14.65 54.27, 32.12 37.67, 61.87 2.1 M0.85 72.29 C19.7 48.74, 42.14 24.66, 61.87 2.1 M2.56 76.43 C25.27 49.39, 51.7 23.23, 66.85 2.46 M2.56 76.43 C23.9 52.69, 44.93 26.51, 66.85 2.46 M4.27 80.56 C30.28 52.57, 56.19 24.01, 72.5 2.07 M4.27 80.56 C20.5 62.03, 35.46 43.19, 72.5 2.07 M6.63 83.94 C32.19 57.25, 56.72 26.66, 77.48 2.43 M6.63 83.94 C27.73 60.25, 47.8 37.86, 77.48 2.43 M9.65 86.56 C30.12 61.82, 51.15 40.59, 83.13 2.03 M9.65 86.56 C35.87 56.8, 61.72 28.2, 83.13 2.03 M13.32 88.43 C35.62 64.93, 55.67 38.82, 88.11 2.4 M13.32 88.43 C31.5 66.6, 52.8 42.95, 88.11 2.4 M18.31 88.79 C42.7 59.48, 67.6 35.52, 93.76 2 M18.31 88.79 C42.54 62.34, 65.94 34.07, 93.76 2 M22.64 89.91 C44.45 66.01, 63.87 42.71, 98.74 2.36 M22.64 89.91 C37.69 72.26, 52.15 54.87, 98.74 2.36 M28.28 89.51 C54.25 60.98, 78.24 28.27, 104.39 1.97 M28.28 89.51 C50.22 64.28, 72.02 40.23, 104.39 1.97 M33.27 89.87 C61.97 57.94, 89.14 27.31, 109.37 2.33 M33.27 89.87 C62.64 56.67, 92.64 22.95, 109.37 2.33 M38.91 89.48 C61.43 62.17, 81.73 37.93, 115.02 1.93 M38.91 89.48 C68.03 54.84, 99.98 20, 115.02 1.93 M43.9 89.84 C64.6 65.78, 86.71 42.6, 120 2.29 M43.9 89.84 C68.17 61.96, 93.5 32.95, 120 2.29 M49.54 89.44 C79.27 56.09, 107.65 21.53, 125.65 1.9 M49.54 89.44 C69.67 64.64, 92.41 38.89, 125.65 1.9 M54.53 89.8 C81.85 61.08, 107.67 31.7, 130.63 2.26 M54.53 89.8 C77.3 63.16, 100.04 36.16, 130.63 2.26 M60.17 89.41 C84.58 63.24, 106.41 34.02, 136.28 1.86 M60.17 89.41 C87.95 57.03, 115.86 23.23, 136.28 1.86 M65.16 89.77 C90.1 61.08, 117.34 30.02, 141.26 2.22 M65.16 89.77 C83.38 69.82, 99.39 48.95, 141.26 2.22 M70.8 89.37 C86.38 71, 104.29 52.55, 146.91 1.83 M70.8 89.37 C100.85 55.15, 130.89 20.35, 146.91 1.83 M75.79 89.73 C93.73 66.18, 113.75 45.35, 151.89 2.19 M75.79 89.73 C104.04 58.52, 131.74 25.99, 151.89 2.19 M81.43 89.34 C111.67 57.08, 138.46 22.3, 157.54 1.79 M81.43 89.34 C101.38 66.39, 122.46 42.23, 157.54 1.79 M86.42 89.7 C111.06 61.36, 137.16 30.61, 162.52 2.15 M86.42 89.7 C102.3 71.89, 119.75 53.54, 162.52 2.15 M92.06 89.31 C117.93 61.44, 140.71 35.34, 167.51 2.51 M92.06 89.31 C121.02 56.23, 151.95 21.37, 167.51 2.51 M97.05 89.67 C115.09 70.33, 130.27 48.75, 173.15 2.12 M97.05 89.67 C113.62 69.5, 130.95 49.59, 173.15 2.12 M102.69 89.27 C119.94 66.6, 139.34 46.66, 178.14 2.48 M102.69 89.27 C117.6 71.38, 134.01 53.92, 178.14 2.48 M107.68 89.63 C124.18 71.92, 139.91 51.32, 183.78 2.08 M107.68 89.63 C131.07 63.56, 152.78 38.78, 183.78 2.08 M112.67 89.99 C132.77 67.89, 152.4 44.65, 188.77 2.44 M112.67 89.99 C142.64 55.74, 173.06 22.49, 188.77 2.44 M118.31 89.6 C134.07 69.56, 149.25 52.29, 194.41 2.05 M118.31 89.6 C137.3 66.7, 158.59 42.51, 194.41 2.05 M123.3 89.96 C147.38 60.52, 171.28 32.93, 199.4 2.41 M123.3 89.96 C143.39 65.97, 163.06 42.65, 199.4 2.41 M128.94 89.56 C156.72 57.41, 186 24.85, 205.04 2.02 M128.94 89.56 C146.73 69.64, 164.66 50.25, 205.04 2.02 M133.93 89.92 C155.22 66.33, 174.41 41.11, 210.03 2.38 M133.93 89.92 C149.52 70.95, 166.56 51.5, 210.03 2.38 M139.57 89.53 C160.94 64.72, 182.52 40.59, 215.67 1.98 M139.57 89.53 C155.33 70.59, 171.16 53.26, 215.67 1.98 M144.56 89.89 C165.47 67.42, 185.83 43.42, 220.66 2.34 M144.56 89.89 C162.36 70.74, 181.29 50.39, 220.66 2.34 M150.2 89.49 C175.7 60.41, 201.24 30.8, 226.3 1.95 M150.2 89.49 C172.38 64.3, 193.55 40.91, 226.3 1.95 M155.19 89.85 C176.62 67.39, 196.95 43.49, 231.29 2.31 M155.19 89.85 C170.55 71.1, 186.86 53.05, 231.29 2.31 M160.83 89.46 C188.08 58.06, 214.53 26.66, 236.93 1.91 M160.83 89.46 C180.5 66.54, 201.69 41.32, 236.93 1.91 M165.82 89.82 C179.68 69.68, 197.33 51.91, 241.92 2.27 M165.82 89.82 C183.26 68.17, 200.77 47.96, 241.92 2.27 M171.46 89.42 C191.17 69.89, 209.82 48.08, 247.56 1.88 M171.46 89.42 C191.07 66.57, 211.43 44.19, 247.56 1.88 M176.45 89.78 C196.24 70.82, 211.47 49.49, 251.9 2.99 M176.45 89.78 C196.56 66.01, 217.74 42.43, 251.9 2.99 M182.09 89.39 C203.45 68.1, 219.48 47.05, 256.88 3.35 M182.09 89.39 C199.99 69.61, 217.11 47.77, 256.88 3.35 M187.08 89.75 C204.41 72.81, 218.72 55.22, 259.9 5.98 M187.08 89.75 C208.31 65.28, 230.2 38.55, 259.9 5.98 M192.72 89.36 C218.5 61.15, 241.15 33.45, 263.58 7.85 M192.72 89.36 C212.75 65.57, 232.45 42.81, 263.58 7.85 M197.71 89.72 C214.93 70.42, 227.67 53.59, 266.6 10.47 M197.71 89.72 C223.87 58.81, 251.85 27.7, 266.6 10.47 M203.35 89.32 C218.56 71.81, 233.84 52.83, 268.3 14.6 M203.35 89.32 C226.9 60.78, 251.28 33.04, 268.3 14.6 M208.34 89.68 C229.56 66.04, 249.66 42.12, 269.35 19.49 M208.34 89.68 C219.89 75.89, 232.4 61.22, 269.35 19.49 M213.98 89.29 C232.25 66.67, 255.71 42.97, 269.75 25.14 M213.98 89.29 C235.75 64.18, 257.41 40.18, 269.75 25.14 M218.97 89.65 C238.11 64.98, 257.09 41.71, 269.49 31.53 M218.97 89.65 C234.31 71.6, 248.96 55.11, 269.49 31.53 M224.61 89.25 C236.5 74.14, 248.98 59.42, 269.88 37.18 M224.61 89.25 C237.88 73.61, 251.9 56.76, 269.88 37.18 M229.6 89.61 C245.59 71.67, 260.1 52.13, 269.62 43.57 M229.6 89.61 C238.26 79.56, 247.98 67.19, 269.62 43.57 M234.59 89.97 C246.32 78.98, 253.26 64.69, 270.01 49.22 M234.59 89.97 C247.12 75.6, 260.98 60.76, 270.01 49.22 M240.23 89.58 C248.82 78.69, 260.27 65.54, 269.75 55.62 M240.23 89.58 C247.21 81.12, 254.94 72.53, 269.75 55.62 M245.87 89.18 C250.07 83.81, 257.93 78.1, 270.15 61.26 M245.87 89.18 C254.8 78.96, 262.27 69.88, 270.15 61.26 M252.17 88.03 C256.08 84.31, 259.03 79.85, 269.23 68.41 M252.17 88.03 C255.26 85.01, 259.89 80.43, 269.23 68.41" stroke="#ffec99" stroke-width="0.5" fill="none"></path><path d="M22.27 0 M22.27 0 C110.21 -1.98, 196.98 0.29, 245.26 0 M22.27 0 C87.28 1.35, 154.06 0.95, 245.26 0 M245.26 0 C261.24 1.95, 269.31 6.32, 267.53 22.27 M245.26 0 C261.73 0.38, 267.05 5.87, 267.53 22.27 M267.53 22.27 C266.35 37.19, 266 51.41, 267.53 66.82 M267.53 22.27 C266.52 38.86, 268.42 56.13, 267.53 66.82 M267.53 66.82 C265.84 83.11, 261.78 89.83, 245.26 89.09 M267.53 66.82 C265.24 83.56, 260.27 86.85, 245.26 89.09 M245.26 89.09 C171.92 91.91, 101.25 90.61, 22.27 89.09 M245.26 89.09 C161.75 88.06, 76.7 88.51, 22.27 89.09 M22.27 89.09 C6.8 89.32, -1.51 80.57, 0 66.82 M22.27 89.09 C5.39 87.06, -1.11 81.99, 0 66.82 M0 66.82 C-1.86 51.42, -1.6 32.98, 0 22.27 M0 66.82 C-0.27 52.84, 0.8 38.31, 0 22.27 M0 22.27 C1.56 5.94, 8.53 0.51, 22.27 0 M0 22.27 C-2.23 7.04, 8.29 -1.23, 22.27 0" stroke="#000000" stroke-width="1" fill="none"></path></g><g transform="translate(261.1942426512553 1044.8080820835603) rotate(0 83.08992004394531 22.02383858816961)"><text x="0" y="0" font-family="Virgil, Segoe UI Emoji" font-size="35.23814174107137px" fill="#1e1e1e" text-anchor="start" style="white-space: pre;" direction="ltr" dominant-baseline="text-before-edge">Controller</text></g></svg>